/* XPM */
static char * 0_xpm[] = {
"20 70 54 1",
" 	c #FFFFFF",
".	c #EEEEEE",
"+	c #AFAFAF",
"@	c #6C6C6C",
"#	c #383838",
"$	c #454545",
"%	c #787878",
"&	c #BBBBBB",
"*	c #F7F7F7",
"=	c #D1D1D1",
"-	c #353535",
";	c #000000",
">	c #565656",
",	c #E5E5E5",
"'	c #DEDEDE",
")	c #1C1C1C",
"!	c #666666",
"~	c #DADADA",
"{	c #F9F9F9",
"]	c #F6F6F6",
"^	c #CDCDCD",
"/	c #424242",
"(	c #4D4D4D",
"_	c #F0F0F0",
":	c #FDFDFD",
"<	c #6D6D6D",
"[	c #494949",
"}	c #F3F3F3",
"|	c #E1E1E1",
"1	c #161616",
"2	c #9D9D9D",
"3	c #D9D9D9",
"4	c #BFBFBF",
"5	c #989898",
"6	c #0D0D0D",
"7	c #A3A3A3",
"8	c #D6D6D6",
"9	c #C8C8C8",
"0	c #6E6E6E",
"a	c #F4F4F4",
"b	c #222222",
"c	c #848484",
"d	c #7C7C7C",
"e	c #9A9A9A",
"f	c #656565",
"g	c #626262",
"h	c #EFEFEF",
"i	c #A1A1A1",
"j	c #717171",
"k	c #4B4B4B",
"l	c #BEBEBE",
"m	c #FAFAFA",
"n	c #6A6A6A",
"o	c #777777",
"                    ",
"                    ",
"                    ",
"                    ",
"                    ",
"                    ",
"                    ",
"                    ",
"                    ",
"                    ",
"                    ",
"                    ",
"                    ",
"                    ",
"                    ",
"                    ",
"                    ",
"                    ",
"                    ",
"                    ",
"      .+@#$%&*      ",
"     =-;;;;;;>,     ",
"    ');!~{]^/;(_    ",
"   :<;[}    |1;2    ",
"   3;;4      5;6}   ",
"   7;;_      8;;9   ",
"   0;>       a;;7   ",
"  :b;c        #;d   ",
"  ];;e        f;g   ",
"  h;;i        j;k   ",
"  h;;i        j;k   ",
"  ];;e        f;g   ",
"  :b;c        #;d   ",
"   0;>       a;;7   ",
"   7;;_      8;;9   ",
"   3;;l      5;6}   ",
"   :@;k}    |1;2    ",
"    ');!~m*^/;k_    ",
"     =-;;;;;;>,     ",
"      .+n#/o&*      ",
"                    ",
"                    ",
"                    ",
"                    ",
"                    ",
"                    ",
"                    ",
"                    ",
"                    ",
"                    ",
"                    ",
"                    ",
"                    ",
"                    ",
"                    ",
"                    ",
"                    ",
"                    ",
"                    ",
"                    ",
"                    ",
"                    ",
"                    ",
"                    ",
"                    ",
"                    ",
"                    ",
"                    ",
"                    ",
"                    "};
