/* XPM */
static char * 1_xpm[] = {
"20 70 17 1",
" 	c #FFFFFF",
".	c #F5F5F5",
"+	c #DBDBDB",
"@	c #BDBDBD",
"#	c #949494",
"$	c #565656",
"%	c #000000",
"&	c #909090",
"*	c #4D4D4D",
"=	c #717171",
"-	c #929292",
";	c #BABABA",
">	c #D9D9D9",
",	c #F2F2F2",
"'	c #FDFDFD",
")	c #B6B6B6",
"!	c #E3E3E3",
"                    ",
"                    ",
"                    ",
"                    ",
"                    ",
"                    ",
"                    ",
"                    ",
"                    ",
"                    ",
"                    ",
"                    ",
"                    ",
"                    ",
"                    ",
"                    ",
"                    ",
"                    ",
"                    ",
"                    ",
"    .+@#$%%&        ",
"    *%%%%%%&        ",
"    =-;>,%%&        ",
"        '%%&        ",
"        '%%&        ",
"        '%%&        ",
"        '%%&        ",
"        '%%&        ",
"        '%%&        ",
"        '%%&        ",
"        '%%&        ",
"        '%%&        ",
"        '%%&        ",
"        '%%&        ",
"        '%%&        ",
"        '%%&        ",
"        '%%&        ",
"        '%%&        ",
"    )%%%%%%%%%%%!   ",
"    )%%%%%%%%%%%!   ",
"                    ",
"                    ",
"                    ",
"                    ",
"                    ",
"                    ",
"                    ",
"                    ",
"                    ",
"                    ",
"                    ",
"                    ",
"                    ",
"                    ",
"                    ",
"                    ",
"                    ",
"                    ",
"                    ",
"                    ",
"                    ",
"                    ",
"                    ",
"                    ",
"                    ",
"                    ",
"                    ",
"                    ",
"                    ",
"                    "};
