/* XPM */
static char * 2_xpm[] = {
"20 70 54 1",
" 	c #FFFFFF",
".	c #F6F6F6",
"+	c #D8D8D8",
"@	c #B2B2B2",
"#	c #868686",
"$	c #686868",
"%	c #383838",
"&	c #353535",
"*	c #626262",
"=	c #9B9B9B",
"-	c #D6D6D6",
";	c #FEFEFE",
">	c #777777",
",	c #000000",
"'	c #818181",
")	c #F3F3F3",
"!	c #757575",
"~	c #C5C5C5",
"{	c #EAEAEA",
"]	c #F9F9F9",
"^	c #FBFBFB",
"/	c #E4E4E4",
"(	c #989898",
"_	c #6E6E6E",
":	c #A3A3A3",
"<	c #DCDCDC",
"[	c #A8A8A8",
"}	c #C2C2C2",
"|	c #161616",
"1	c #858585",
"2	c #565656",
"3	c #FCFCFC",
"4	c #262626",
"5	c #737373",
"6	c #D2D2D2",
"7	c #AAAAAA",
"8	c #5F5F5F",
"9	c #959595",
"0	c #B4B4B4",
"a	c #AFAFAF",
"b	c #FDFDFD",
"c	c #B7B7B7",
"d	c #7C7C7C",
"e	c #F8F8F8",
"f	c #BABABA",
"g	c #F7F7F7",
"h	c #BBBBBB",
"i	c #767676",
"j	c #BDBDBD",
"k	c #BEBEBE",
"l	c #C0C0C0",
"m	c #787878",
"n	c #797979",
"o	c #3B3B3B",
"                    ",
"                    ",
"                    ",
"                    ",
"                    ",
"                    ",
"                    ",
"                    ",
"                    ",
"                    ",
"                    ",
"                    ",
"                    ",
"                    ",
"                    ",
"                    ",
"                    ",
"                    ",
"                    ",
"                    ",
"   .+@#$%&*=-;      ",
"   >,,,,,,,,,')     ",
"   >,!~{]^/(,,_^    ",
"   :<       [,,}    ",
"            .|,1    ",
"             2,*    ",
"            34,5    ",
"            6,,7    ",
"           ]8,|{    ",
"          ;9,,0     ",
"          a,,#b     ",
"         c,,de      ",
"        f,,>g       ",
"       h,,i.        ",
"      j,,i.         ",
"     k,,>.          ",
"    l,,m.           ",
"   },,ng            ",
"   o,,,,,,,,,,,,b   ",
"   o,,,,,,,,,,,,b   ",
"                    ",
"                    ",
"                    ",
"                    ",
"                    ",
"                    ",
"                    ",
"                    ",
"                    ",
"                    ",
"                    ",
"                    ",
"                    ",
"                    ",
"                    ",
"                    ",
"                    ",
"                    ",
"                    ",
"                    ",
"                    ",
"                    ",
"                    ",
"                    ",
"                    ",
"                    ",
"                    ",
"                    ",
"                    ",
"                    "};
