/* XPM */
static char * 3_xpm[] = {
"20 70 78 1",
" 	c #FFFFFF",
".	c #FEFEFE",
"+	c #E9E9E9",
"@	c #C4C4C4",
"#	c #969696",
"$	c #737373",
"%	c #4D4D4D",
"&	c #222222",
"*	c #4B4B4B",
"=	c #808080",
"-	c #B6B6B6",
";	c #EEEEEE",
">	c #E0E0E0",
",	c #000000",
"'	c #262626",
")	c #C1C1C1",
"!	c #E2E2E2",
"~	c #818181",
"{	c #BBBBBB",
"]	c #DCDCDC",
"^	c #ECECEC",
"/	c #F8F8F8",
"(	c #FAFAFA",
"_	c #C0C0C0",
":	c #515151",
"<	c #CDCDCD",
"[	c #EDEDED",
"}	c #2E2E2E",
"|	c #656565",
"1	c #8E8E8E",
"2	c #F9F9F9",
"3	c #929292",
"4	c #323232",
"5	c #F2F2F2",
"6	c #3B3B3B",
"7	c #979797",
"8	c #FBFBFB",
"9	c #EFEFEF",
"0	c #C8C8C8",
"a	c #5F5F5F",
"b	c #666666",
"c	c #F1F1F1",
"d	c #D4D4D4",
"e	c #B9B9B9",
"f	c #9B9B9B",
"g	c #EAEAEA",
"h	c #FCFCFC",
"i	c #C5C5C5",
"j	c #4F4F4F",
"k	c #DBDBDB",
"l	c #565656",
"m	c #454545",
"n	c #F7F7F7",
"o	c #C7C7C7",
"p	c #CBCBCB",
"q	c #E6E6E6",
"r	c #B3B3B3",
"s	c #E4E4E4",
"t	c #D2D2D2",
"u	c #494949",
"v	c #474747",
"w	c #898989",
"x	c #ABABAB",
"y	c #D9D9D9",
"z	c #EBEBEB",
"A	c #F5F5F5",
"B	c #FDFDFD",
"C	c #B8B8B8",
"D	c #0D0D0D",
"E	c #D1D1D1",
"F	c #686868",
"G	c #D3D3D3",
"H	c #F4F4F4",
"I	c #A3A3A3",
"J	c #797979",
"K	c #585858",
"L	c #636363",
"M	c #CACACA",
"                    ",
"                    ",
"                    ",
"                    ",
"                    ",
"                    ",
"                    ",
"                    ",
"                    ",
"                    ",
"                    ",
"                    ",
"                    ",
"                    ",
"                    ",
"                    ",
"                    ",
"                    ",
"                    ",
"                    ",
"   .+@#$%&*=-;      ",
"   >,,,,,,,,,')     ",
"   !~{]^/(^_:,,<    ",
"            [},|    ",
"             1,,2   ",
"             3,4.   ",
"            56,7    ",
"         890a,bc    ",
"      d,,,,,ae/     ",
"      d,,,,,4fg     ",
"         h;ij,6k    ",
"            cl,mn   ",
"             o,,p   ",
"             q,,r   ",
"             s,,e   ",
"             _,,t   ",
"            ^u,v/   ",
"   wxyzAB2qC6,DE    ",
"   F,,,,,,,,,*G     ",
"   HEIJK'6L#M/      ",
"                    ",
"                    ",
"                    ",
"                    ",
"                    ",
"                    ",
"                    ",
"                    ",
"                    ",
"                    ",
"                    ",
"                    ",
"                    ",
"                    ",
"                    ",
"                    ",
"                    ",
"                    ",
"                    ",
"                    ",
"                    ",
"                    ",
"                    ",
"                    ",
"                    ",
"                    ",
"                    ",
"                    ",
"                    ",
"                    "};
