/* XPM */
static char * 4_xpm[] = {
"20 70 39 1",
" 	c #FFFFFF",
".	c #BEBEBE",
"+	c #000000",
"@	c #D6D6D6",
"#	c #E9E9E9",
"$	c #262626",
"%	c #FCFCFC",
"&	c #757575",
"*	c #696969",
"=	c #B6B6B6",
"-	c #7A7A7A",
";	c #C5C5C5",
">	c #E4E4E4",
",	c #1C1C1C",
"'	c #222222",
")	c #C8C8C8",
"!	c #FBFBFB",
"~	c #6A6A6A",
"{	c #B9B9B9",
"]	c #AEAEAE",
"^	c #717171",
"/	c #DFDFDF",
"(	c #0D0D0D",
"_	c #161616",
":	c #E5E5E5",
"<	c #F9F9F9",
"[	c #606060",
"}	c #B2B2B2",
"|	c #A5A5A5",
"1	c #686868",
"2	c #DADADA",
"3	c #E1E1E1",
"4	c #F6F6F6",
"5	c #555555",
"6	c #ACACAC",
"7	c #B1B1B1",
"8	c #5F5F5F",
"9	c #A4A4A4",
"0	c #E0E0E0",
"                    ",
"                    ",
"                    ",
"                    ",
"                    ",
"                    ",
"                    ",
"                    ",
"                    ",
"                    ",
"                    ",
"                    ",
"                    ",
"                    ",
"                    ",
"                    ",
"                    ",
"                    ",
"                    ",
"                    ",
"          .+++@     ",
"         #$+++@     ",
"        %&+*++@     ",
"        =+-;++@     ",
"       >,'#)++@     ",
"      !~+{ )++@     ",
"      ]+^% )++@     ",
"     /(_:  )++@     ",
"    <[+}   )++@     ",
"    |+1!   )++@     ",
"   2+(3    )++@     ",
"  45+6     )++@     ",
"  7+8<     )++@     ",
"  9++++++++++++++0  ",
"  9++++++++++++++0  ",
"           )++@     ",
"           )++@     ",
"           )++@     ",
"           )++@     ",
"           )++@     ",
"                    ",
"                    ",
"                    ",
"                    ",
"                    ",
"                    ",
"                    ",
"                    ",
"                    ",
"                    ",
"                    ",
"                    ",
"                    ",
"                    ",
"                    ",
"                    ",
"                    ",
"                    ",
"                    ",
"                    ",
"                    ",
"                    ",
"                    ",
"                    ",
"                    ",
"                    ",
"                    ",
"                    ",
"                    ",
"                    "};
