/* XPM */
static char * 5_xpm[] = {
"20 70 54 1",
" 	c #FFFFFF",
".	c #1C1C1C",
"+	c #000000",
"@	c #686868",
"#	c #B3B3B3",
"$	c #696969",
"%	c #6D6D6D",
"&	c #353535",
"*	c #383838",
"=	c #656565",
"-	c #9F9F9F",
";	c #DADADA",
">	c #888888",
",	c #F4F4F4",
"'	c #7D7D7D",
")	c #C2C2C2",
"!	c #E4E4E4",
"~	c #F2F2F2",
"{	c #FCFCFC",
"]	c #F5F5F5",
"^	c #D6D6D6",
"/	c #727272",
"(	c #F9F9F9",
"_	c #FDFDFD",
":	c #9D9D9D",
"<	c #B2B2B2",
"[	c #FAFAFA",
"}	c #515151",
"|	c #3B3B3B",
"1	c #ABABAB",
"2	c #C6C6C6",
"3	c #D5D5D5",
"4	c #ACACAC",
"5	c #E3E3E3",
"6	c #535353",
"7	c #9E9E9E",
"8	c #AFAFAF",
"9	c #8C8C8C",
"0	c #A9A9A9",
"a	c #D7D7D7",
"b	c #EAEAEA",
"c	c #6E6E6E",
"d	c #F7F7F7",
"e	c #8B8B8B",
"f	c #F3F3F3",
"g	c #D0D0D0",
"h	c #A2A2A2",
"i	c #787878",
"j	c #565656",
"k	c #222222",
"l	c #454545",
"m	c #717171",
"n	c #A7A7A7",
"o	c #DEDEDE",
"                    ",
"                    ",
"                    ",
"                    ",
"                    ",
"                    ",
"                    ",
"                    ",
"                    ",
"                    ",
"                    ",
"                    ",
"                    ",
"                    ",
"                    ",
"                    ",
"                    ",
"                    ",
"                    ",
"                    ",
"    .+++++++++@     ",
"    .+++++++++@     ",
"    .+#             ",
"    .+#             ",
"    .+#             ",
"    .+#             ",
"    .+$%&*=-;       ",
"    .++++++++>,     ",
"    ')!~{]^'++/(    ",
"           _:++<    ",
"            [}+|{   ",
"             1++!   ",
"             2++3   ",
"             2++3   ",
"             4++5   ",
"            [6+*{   ",
"           _7++8    ",
"   90ab]_]^'++cd    ",
"   %+++++++++ef     ",
"   ,ghijklmno       ",
"                    ",
"                    ",
"                    ",
"                    ",
"                    ",
"                    ",
"                    ",
"                    ",
"                    ",
"                    ",
"                    ",
"                    ",
"                    ",
"                    ",
"                    ",
"                    ",
"                    ",
"                    ",
"                    ",
"                    ",
"                    ",
"                    ",
"                    ",
"                    ",
"                    ",
"                    ",
"                    ",
"                    ",
"                    ",
"                    "};
