/* XPM */
static char * 6_xpm[] = {
"20 70 76 1",
" 	c #FFFFFF",
".	c #F3F3F3",
"+	c #BDBDBD",
"@	c #808080",
"#	c #515151",
"$	c #2E2E2E",
"%	c #656565",
"&	c #8F8F8F",
"*	c #CACACA",
"=	c #F5F5F5",
"-	c #C7C7C7",
";	c #3B3B3B",
">	c #000000",
",	c #909090",
"'	c #BBBBBB",
")	c #7A7A7A",
"!	c #D4D4D4",
"~	c #F4F4F4",
"{	c #FDFDFD",
"]	c #F7F7F7",
"^	c #E0E0E0",
"/	c #AEAEAE",
"(	c #A3A3A3",
"_	c #DCDCDC",
":	c #9F9F9F",
"<	c #FEFEFE",
"[	c #636363",
"}	c #FBFBFB",
"|	c #D9D9D9",
"1	c #C6C6C6",
"2	c #A7A7A7",
"3	c #F1F1F1",
"4	c #727272",
"5	c #565656",
"6	c #9A9A9A",
"7	c #262626",
"8	c #8E8E8E",
"9	c #CCCCCC",
"0	c #FCFCFC",
"a	c #3D3D3D",
"b	c #818181",
"c	c #B4B4B4",
"d	c #777777",
"e	c #5A5A5A",
"f	c #D1D1D1",
"g	c #F6F6F6",
"h	c #E9E9E9",
"i	c #737373",
"j	c #424242",
"k	c #EFEFEF",
"l	c #A8A8A8",
"m	c #C5C5C5",
"n	c #222222",
"o	c #5D5D5D",
"p	c #DBDBDB",
"q	c #787878",
"r	c #323232",
"s	c #E5E5E5",
"t	c #8B8B8B",
"u	c #353535",
"v	c #EBEBEB",
"w	c #868686",
"x	c #929292",
"y	c #CDCDCD",
"z	c #EEEEEE",
"A	c #474747",
"B	c #D2D2D2",
"C	c #848484",
"D	c #E4E4E4",
"E	c #585858",
"F	c #F8F8F8",
"G	c #BEBEBE",
"H	c #7D7D7D",
"I	c #494949",
"J	c #979797",
"K	c #D6D6D6",
"                    ",
"                    ",
"                    ",
"                    ",
"                    ",
"                    ",
"                    ",
"                    ",
"                    ",
"                    ",
"                    ",
"                    ",
"                    ",
"                    ",
"                    ",
"                    ",
"                    ",
"                    ",
"                    ",
"                    ",
"       .+@#$%&*=    ",
"      -;>>>>>>>,    ",
"     '>>)!~{]^/(    ",
"    _>>:<           ",
"   <%>[}            ",
"   |>>1             ",
"   2>>3             ",
"   4>5 ^657#890     ",
"   a>bc>>>>>>>d3    ",
"  {>>$>efg0h:>>i}   ",
"  {>>>jk     l>>m   ",
"   $>>c      gn>b   ",
"   o>>p       q>r   ",
"   ,>>s       t>>0  ",
"   '>>p       q>u   ",
"   v>>c      gn>w   ",
"    x>jk     l>>y   ",
"    zA>eB]0h:>>C{   ",
"     DE>>>>>>>tg    ",
"      FGHI7EJK      ",
"                    ",
"                    ",
"                    ",
"                    ",
"                    ",
"                    ",
"                    ",
"                    ",
"                    ",
"                    ",
"                    ",
"                    ",
"                    ",
"                    ",
"                    ",
"                    ",
"                    ",
"                    ",
"                    ",
"                    ",
"                    ",
"                    ",
"                    ",
"                    ",
"                    ",
"                    ",
"                    ",
"                    ",
"                    ",
"                    "};
