/* XPM */
static char * 7_xpm[] = {
"20 70 45 1",
" 	c #FFFFFF",
".	c #949494",
"+	c #000000",
"@	c #C8C8C8",
"#	c #DCDCDC",
"$	c #F2F2F2",
"%	c #161616",
"&	c #606060",
"*	c #FEFEFE",
"=	c #BDBDBD",
"-	c #BCBCBC",
";	c #656565",
">	c #DFDFDF",
",	c #929292",
"'	c #9F9F9F",
")	c #D7D7D7",
"!	c #F7F7F7",
"~	c #323232",
"{	c #555555",
"]	c #FDFDFD",
"^	c #B6B6B6",
"/	c #787878",
"(	c #EEEEEE",
"_	c #E7E7E7",
":	c #898989",
"<	c #ACACAC",
"[	c #D2D2D2",
"}	c #FBFBFB",
"|	c #474747",
"1	c #494949",
"2	c #D1D1D1",
"3	c #AFAFAF",
"4	c #EAEAEA",
"5	c #EFEFEF",
"6	c #0D0D0D",
"7	c #808080",
"8	c #B8B8B8",
"9	c #CDCDCD",
"0	c #5C5C5C",
"a	c #3D3D3D",
"b	c #FAFAFA",
"c	c #DBDBDB",
"d	c #A9A9A9",
"e	c #999999",
"f	c #E6E6E6",
"                    ",
"                    ",
"                    ",
"                    ",
"                    ",
"                    ",
"                    ",
"                    ",
"                    ",
"                    ",
"                    ",
"                    ",
"                    ",
"                    ",
"                    ",
"                    ",
"                    ",
"                    ",
"                    ",
"                    ",
"   .++++++++++++@   ",
"   .++++++++++++#   ",
"            $%+&*   ",
"            =++-    ",
"            ;+%$    ",
"           >++,     ",
"           '++)     ",
"          !~+{]     ",
"          @++^      ",
"          /++(      ",
"         _++:       ",
"         <++[       ",
"        }|+1}       ",
"        2++3        ",
"        :++4        ",
"       56+7         ",
"       8++9         ",
"      *0+ab         ",
"      c++d          ",
"      e++f          ",
"                    ",
"                    ",
"                    ",
"                    ",
"                    ",
"                    ",
"                    ",
"                    ",
"                    ",
"                    ",
"                    ",
"                    ",
"                    ",
"                    ",
"                    ",
"                    ",
"                    ",
"                    ",
"                    ",
"                    ",
"                    ",
"                    ",
"                    ",
"                    ",
"                    ",
"                    ",
"                    ",
"                    ",
"                    ",
"                    "};
