/* XPM */
static char * 8_xpm[] = {
"20 70 82 1",
" 	c #FFFFFF",
".	c #FAFAFA",
"+	c #C6C6C6",
"@	c #8C8C8C",
"#	c #565656",
"$	c #2A2A2A",
"%	c #353535",
"&	c #606060",
"*	c #979797",
"=	c #D2D2D2",
"-	c #FEFEFE",
";	c #E6E6E6",
">	c #5A5A5A",
",	c #000000",
"'	c #7C7C7C",
")	c #F4F4F4",
"!	c #F6F6F6",
"~	c #515151",
"{	c #A8A8A8",
"]	c #E8E8E8",
"^	c #F9F9F9",
"/	c #E0E0E0",
"(	c #8E8E8E",
"_	c #818181",
":	c #C7C7C7",
"<	c #AEAEAE",
"[	c #8D8D8D",
"}	c #E4E4E4",
"|	c #ABABAB",
"1	c #E5E5E5",
"2	c #D0D0D0",
"3	c #CECECE",
"4	c #BBBBBB",
"5	c #CFCFCF",
"6	c #DBDBDB",
"7	c #0D0D0D",
"8	c #AFAFAF",
"9	c #8F8F8F",
"0	c #4D4D4D",
"a	c #F8F8F8",
"b	c #BCBCBC",
"c	c #AAAAAA",
"d	c #E9E9E9",
"e	c #F7F7F7",
"f	c #E1E1E1",
"g	c #919191",
"h	c #323232",
"i	c #D8D8D8",
"j	c #DDDDDD",
"k	c #959595",
"l	c #A4A4A4",
"m	c #EAEAEA",
"n	c #717171",
"o	c #858585",
"p	c #FCFCFC",
"q	c #999999",
"r	c #ADADAD",
"s	c #E3E3E3",
"t	c #BEBEBE",
"u	c #C4C4C4",
"v	c #A3A3A3",
"w	c #DCDCDC",
"x	c #5D5D5D",
"y	c #F2F2F2",
"z	c #929292",
"A	c #585858",
"B	c #656565",
"C	c #939393",
"D	c #686868",
"E	c #A0A0A0",
"F	c #EFEFEF",
"G	c #404040",
"H	c #949494",
"I	c #696969",
"J	c #FBFBFB",
"K	c #E2E2E2",
"L	c #767676",
"M	c #F0F0F0",
"N	c #555555",
"O	c #5F5F5F",
"P	c #D1D1D1",
"Q	c #FDFDFD",
"                    ",
"                    ",
"                    ",
"                    ",
"                    ",
"                    ",
"                    ",
"                    ",
"                    ",
"                    ",
"                    ",
"                    ",
"                    ",
"                    ",
"                    ",
"                    ",
"                    ",
"                    ",
"                    ",
"                    ",
"     .+@#$%&*=-     ",
"    ;>,,,,,,,,')    ",
"   !~,,{]^!/(,,_    ",
"   :,,<      [,,}   ",
"   |,,1      2,,3   ",
"   4,,1      5,,6   ",
"   ;7,8      9,0a   ",
"    b,,cd.efg,hi    ",
"     jk7,,,,%lm     ",
"     :n,,,,,,oi     ",
"   pq,7rmp.sk,,4    ",
"   t,,u      v,,w   ",
"   x,#-      y,,k   ",
"  a,,z        A,B   ",
"  ^,,C        #,D   ",
"   0,#-      y,,@   ",
"   l,,u      E,,+   ",
"   FG,7rmp.sH,,IJ   ",
"    KA,,,,,,,,LM    ",
"     a+[N$hO*PQ     ",
"                    ",
"                    ",
"                    ",
"                    ",
"                    ",
"                    ",
"                    ",
"                    ",
"                    ",
"                    ",
"                    ",
"                    ",
"                    ",
"                    ",
"                    ",
"                    ",
"                    ",
"                    ",
"                    ",
"                    ",
"                    ",
"                    ",
"                    ",
"                    ",
"                    ",
"                    ",
"                    ",
"                    ",
"                    ",
"                    "};
