/* XPM */
static char * 9_xpm[] = {
"20 70 80 1",
" 	c #FFFFFF",
".	c #FCFCFC",
"+	c #CACACA",
"@	c #8D8D8D",
"#	c #515151",
"$	c #262626",
"%	c #555555",
"&	c #8A8A8A",
"*	c #FDFDFD",
"=	c #EDEDED",
"-	c #6D6D6D",
";	c #000000",
">	c #767676",
",	c #F3F3F3",
"'	c #F5F5F5",
")	c #5F5F5F",
"!	c #0D0D0D",
"~	c #B4B4B4",
"{	c #EEEEEE",
"]	c #F2F2F2",
"^	c #C2C2C2",
"/	c #323232",
"(	c #717171",
"_	c #FBFBFB",
":	c #ADADAD",
"<	c #C6C6C6",
"[	c #DBDBDB",
"}	c #BBBBBB",
"|	c #FEFEFE",
"1	c #474747",
"2	c #606060",
"3	c #8B8B8B",
"4	c #A3A3A3",
"5	c #BEBEBE",
"6	c #DADADA",
"7	c #E5E5E5",
"8	c #B0B0B0",
"9	c #B9B9B9",
"0	c #989898",
"a	c #3B3B3B",
"b	c #626262",
"c	c #8C8C8C",
"d	c #858585",
"e	c #A1A1A1",
"f	c #C8C8C8",
"g	c #DCDCDC",
"h	c #EFEFEF",
"i	c #161616",
"j	c #B6B6B6",
"k	c #C4C4C4",
"l	c #353535",
"m	c #1C1C1C",
"n	c #222222",
"o	c #797979",
"p	c #E3E3E3",
"q	c #CECECE",
"r	c #F7F7F7",
"s	c #808080",
"t	c #454545",
"u	c #A6A6A6",
"v	c #EBEBEB",
"w	c #A5A5A5",
"x	c #D7D7D7",
"y	c #CBCBCB",
"z	c #A0A0A0",
"A	c #2E2E2E",
"B	c #9B9B9B",
"C	c #7A7A7A",
"D	c #3D3D3D",
"E	c #F0F0F0",
"F	c #848484",
"G	c #BDBDBD",
"H	c #E6E6E6",
"I	c #5D5D5D",
"J	c #D6D6D6",
"K	c #4D4D4D",
"L	c #5A5A5A",
"M	c #2A2A2A",
"N	c #585858",
"O	c #FAFAFA",
"                    ",
"                    ",
"                    ",
"                    ",
"                    ",
"                    ",
"                    ",
"                    ",
"                    ",
"                    ",
"                    ",
"                    ",
"                    ",
"                    ",
"                    ",
"                    ",
"                    ",
"                    ",
"                    ",
"                    ",
"     .+@#$%&+*      ",
"    =-;;;;;;;>,     ",
"   ');!~{.]^/;(_    ",
"   :;;<     [;;}    ",
"  |1;2|      3;1.   ",
"  {;;4       5;;6   ",
"  7;;8       +;;9   ",
"  =;;4       5;;0   ",
"  .a;b|      c;;d   ",
"   e;;f     g;;;>   ",
"   h1;ijh*,klmn;o   ",
"    p%;;;;;;$q$;3   ",
"     r5st$)uv];;w   ",
"             x;;y   ",
"             z;m]   ",
"            {A;B    ",
"           rC;DE    ",
"    FGH'.E+I;nJ     ",
"    K;;;;;;;Lg      ",
"    {5FLMN&<O       ",
"                    ",
"                    ",
"                    ",
"                    ",
"                    ",
"                    ",
"                    ",
"                    ",
"                    ",
"                    ",
"                    ",
"                    ",
"                    ",
"                    ",
"                    ",
"                    ",
"                    ",
"                    ",
"                    ",
"                    ",
"                    ",
"                    ",
"                    ",
"                    ",
"                    ",
"                    ",
"                    ",
"                    ",
"                    ",
"                    "};
