/* XPM */
static char * enemy_evo_xpm[] = {
"70 70 151 2",
"  	c #73C7A1",
". 	c #7ACBA8",
"+ 	c #78CAA6",
"@ 	c #79CBA7",
"# 	c #7ACBA7",
"$ 	c #7BCCA8",
"% 	c #79CAA6",
"& 	c #7FCFAD",
"* 	c #7ECEAC",
"= 	c #71C6A0",
"- 	c #6AC19C",
"; 	c #6BC29C",
"> 	c #66BF99",
", 	c #76C9A4",
"' 	c #7DCDAB",
") 	c #7BCCA9",
"! 	c #7CCDAA",
"~ 	c #68C09A",
"{ 	c #6DC39D",
"] 	c #77CAA5",
"^ 	c #7ECEAB",
"/ 	c #6AC29C",
"( 	c #6DC39E",
"_ 	c #69C19B",
": 	c #77C9A5",
"< 	c #65BF99",
"[ 	c #75C8A3",
"} 	c #7DCDAA",
"| 	c #6CC29D",
"1 	c #70C59F",
"2 	c #74C8A2",
"3 	c #75C8A2",
"4 	c #7CCCA9",
"5 	c #E0EFE7",
"6 	c #FFFFFF",
"7 	c #FEFFFE",
"8 	c #86CCAB",
"9 	c #61BC96",
"0 	c #FCFDFC",
"a 	c #71C49E",
"b 	c #6EC49E",
"c 	c #63BD97",
"d 	c #64BE98",
"e 	c #FBFDFC",
"f 	c #B8D3C4",
"g 	c #F9FAF9",
"h 	c #71C39E",
"i 	c #81D0AF",
"j 	c #79CBA6",
"k 	c #6FC09B",
"l 	c #72C7A1",
"m 	c #6CC39D",
"n 	c #72C59F",
"o 	c #67BF9A",
"p 	c #68C09B",
"q 	c #6FC49E",
"r 	c #FCFDFD",
"s 	c #6AC19B",
"t 	c #72C6A0",
"u 	c #67C09A",
"v 	c #F5FAF7",
"w 	c #6CBB97",
"x 	c #74C7A1",
"y 	c #83CEAB",
"z 	c #FEFEFE",
"A 	c #7ACAA5",
"B 	c #88D1AE",
"C 	c #8FD4B3",
"D 	c #D2E9DD",
"E 	c #6BB996",
"F 	c #8DD3B2",
"G 	c #7ECCA8",
"H 	c #80CDA9",
"I 	c #77C9A3",
"J 	c #7DCBA7",
"K 	c #78C9A4",
"L 	c #71C49F",
"M 	c #72C5A0",
"N 	c #F1F7F4",
"O 	c #7DCEAB",
"P 	c #7ACCA8",
"Q 	c #6FC59F",
"R 	c #EDF4F0",
"S 	c #CDE7D9",
"T 	c #F1F1EF",
"U 	c #6EC09B",
"V 	c #EFF7F3",
"W 	c #6EBE9A",
"X 	c #73C6A0",
"Y 	c #5DBA94",
"Z 	c #F8FAF9",
"` 	c #65BE98",
" .	c #6FC19C",
"..	c #F5F7F4",
"+.	c #7CCCAA",
"@.	c #61AA89",
"#.	c #6DC49E",
"$.	c #6ABF99",
"%.	c #EDF6F1",
"&.	c #82CEAA",
"*.	c #79CAA5",
"=.	c #7BCBA6",
"-.	c #89D2AF",
";.	c #8CD3B1",
">.	c #82CEAB",
",.	c #74C7A2",
"'.	c #F7FAF8",
").	c #75C9A3",
"!.	c #7FCFAC",
"~.	c #63BD98",
"{.	c #CCE3D7",
"].	c #77C9A4",
"^.	c #65BE99",
"/.	c #5FBB95",
"(.	c #BFDBCC",
"_.	c #90C2A9",
":.	c #71C59F",
"<.	c #91C9AE",
"[.	c #B6D4C4",
"}.	c #FCFEFD",
"|.	c #DDEDE5",
"1.	c #7CCBA6",
"2.	c #8AD2B0",
"3.	c #7DCCA8",
"4.	c #91D6B5",
"5.	c #81CDAA",
"6.	c #7DCCA7",
"7.	c #76C8A3",
"8.	c #87D1AE",
"9.	c #85D0AD",
"0.	c #86D0AD",
"a.	c #7ACAA6",
"b.	c #7CCBA7",
"c.	c #E2F0E9",
"d.	c #A0D3BA",
"e.	c #E5F1EA",
"f.	c #F0F5F2",
"g.	c #FDFEFE",
"h.	c #80CFAE",
"i.	c #82D1AF",
"j.	c #F6F9F7",
"k.	c #FDFEFD",
"l.	c #A8CDB8",
"m.	c #6FC59E",
"n.	c #62BD97",
"o.	c #6CC29C",
"p.	c #73C7A3",
"q.	c #73C7A2",
"r.	c #81D0AE",
"s.	c #72C6A1",
"t.	c #76C9A3",
"  . + @ #       $ % & * = - ; > =             @ , @ '       , ) * ! , ~ ; - {             ] @ ! ^         * * @ ) / - ( _               ) * ",
"  @ : +           ! , .   <   {               , . [ ,         }   !   <   {                 !   +         # , !   | 1 {                 !   ",
"                                  [ & 2 [                                     , ) ] 3                                     , ] ) 3           ",
"                                  & @ * ,                                     ' ] ! ]                                     . + 4 .           ",
"                                                                                                                                            ",
"                                                                                                                                            ",
"                                                            5 6 6 6 6 6 6 6 6 6 7 8                                                         ",
"                                  1 9 = 1               0 6 6 6 6 6 6 6 6 6 6 6 6 6 6 a                                   b { ~ =           ",
"                                  c b d 1           e 6 6 6 6 6 6 6 6 6 6 6 6 6 6 6 6 6 f                                 { { _ ;           ",
"                                  !               7 6 6 6 6 6 6 6 6 6 6 6 6 6 6 6 6 6 6 6 g h                             2 :               ",
"=                               i & j :     =   6 6 6 6 6 6 6 6 6 6 6 6 6 6 6 6 6 6 6 6 6 6 6 k                         & , @ )     l 1     ",
"_ m b                           ,   @     { _ 6 6 6 6 6 6 6 6 6 6 6 6 6 6 6 6 6 6 6 6 6 6 6 6 6 n                         : [ ]   b b 9 o   ",
"  {         1 b p q                       p 6 6 6 6 6 6 6 6 6 6 6 6 6 6 6 6 6 6 6 6 6 6 6 6 6 6 r     q s t q                     l u   {   ",
"            t ; = d                       v 6 6 6 6 6 6 6 6 6 6 6 6 6 6 6 6 6 6 6 6 6 6 6 6 6 6 6 w   ~ b / {                               ",
"  2 x y 3                                 6 6 6 6 6 6 6 6 6 6 6 6 6 6 6 6 6 6 6 6 6 6 6 6 6 6 6 6 z                                     3 A ",
"  y y B C 2                             D 6 6 6 6 6 6 6 6 6 6 6 6 6 6 6 6 6 6 6 6 6 6 6 6 6 6 6 6 6 E                                   F G ",
"    H I J                               6 6 6 6 6 6 6 6 6 6 6 6 6 6 6 6 6 6 6 6 6 6 6 6 6 6 6 6 6 6 z                                   3 K ",
"                                        6 6 6 6 6 6 6 6 6 6 6 6 6 6 6 6 6 6 6 6 6 6 6 6 6 6 6 6 6 6 6                                       ",
"                                      L 6 6 6 6 6 6 6 6 6 6 6 6 6 6 6 6 6 6 6 6 6 6 6 6 6 6 6 6 6 6 6 M                                     ",
"    , [             '       |         N 6 6 6 6 6 6 6 6 6 6 6 6 6 6 6 6 6 6 6 6 6 6 6 6 6 6 6 6 6 6 6 M     ! 2     m                     O ",
"  # + @ #       P + & * = ; / > =     z 6 6 6 6 6 6 6 6 6 6 6 6 6 6 6 6 6 6 6 6 6 6 6 6 6 6 6 6 6 6 6     * * @ ) ; s b _               $ & ",
"  , [ ,           @ [ ]   ;   Q     , 6 6 6 6 6 6 6 6 6 6 6 6 6 6 6 6 6 6 6 6 6 6 6 6 6 6 6 6 6 6 6 R     ] [ @   q = Q     2 [         @   ",
"                                  # i 6 6 6 6 6 6 6 6 6 6 6 6 6 6 6 6 6 6 6 6 6 6 6 6 6 6 6 6 6 6 6                       ! + ' +           ",
"                                  4   4 6 6 6 6 6 6 6 6 6 6 6 6 6 6 6 6 6 6 6 6 6 6 6 6 6 6 6 6 6 n                       2 , + :           ",
"                                        S 6 6 6 6 6 6 6 6 6 6 6 6 6 6 6 6 6 6 6 6 6 6 6 6 6 6 T U                                           ",
"                                          V 6 6 6 6 6 6 6 6 6 6 6 6 6 6 6 6 6 6 6 6 6 6 6 6 6 6 W                                           ",
"                                    q       X 6 6 6 6 6 6 6 6 6 6 6 6 6 6 6 6 6 6 6 6 6 6 6 6 6 6                           t 1             ",
"                                l _ Y { m     6 6 6 6 6 6 6 6 6 6 6 6 6 6 6 6 6 6 6 6 6 6 6 6 6 6 Z                       > | ` {           ",
"                                  u   u       6 6 6 6 6 6 6 6 6 6 6 6 6 6 6 6 6 6 6 6 6 6 6 6 6 6 6  .                    t q { b           ",
"                                  !         6 6 6 6 6 6 6 6 6 6 6 6 6 6 6 6 6 6 6 6 6 6 6 6 6 6 6 6 ..                    2 ,               ",
"q                               & ! ) ,     6 6 6 6 6 6 6 6 6 6 6 6 6 6 6 6 6 6 6 6 6 6 6 6 6 6 6 6 6  .                ) + @ +.    t m     ",
"; _ b           1               2   ,     ~ 6 6 6 6 6 6 6 6 6 6 6 6 6 6 6 6 6 6 6 6 6 6 6 6 6 6 6 6 6 @.=                 3 2 [   #.; < d   ",
"  Q         b ; _ ;                       { 6 6 6 6 6 6 6 6 6 6 6 6 6 6 6 6 6 6 6 6 6 6 6 6 6 6 6 6 6 $.s = m                       m   Q   ",
"              b   ~                         %.6 6 6 6 6 6 6 6 6 6 6 6 6 6 6 6 6 6 6 6 6 6 6 6 6 6 6 6 ; 1 ; 1                               ",
"  x   &.2                                   6 6 6 6 6 6 6 6 6 6 6 6 6 6 6 6 6 6 6 6 6 6 6 6 6 6 6 6 6                                   2 *.",
"  =.-.&.;.x                                 6 6 6 6 6 6 6 6 6 6 6 6 6 6 6 6 6 6 6 6 6 6 6 6 6 6 6 6 Z                                   >.G ",
"    ,.  x                                 '.6 6 6 6 6 6 6 6 6 6 6 6 6 6 6 6 6 6 6 6 6 6 6 6 6 6 6 6 n                                       ",
"                                          6 6 6 6 6 6 6 6 6 6 6 6 6 6 6 6 6 6 6 6 6 6 6 6 6 6 6 6 6                                         ",
"                                          7 6 6 6 6 6 6 6 6 6 6 6 6 6 6 6 6 6 6 6 6 6 6 6 6 6 6 6 6                                         ",
"  3 : , [       ).2 * , l t / 1 l         8 6 6 6 6 6 6 6 6 6 6 6 6 6 6 6 6 6 6 6 6 6 6 6 6 6 6 6 S       , O [ , = ; t 1               3 !.",
"  ) @ P ]       + ' ) & t ~.q < t           6 6 6 6 6 6 6 6 6 6 6 6 6 6 6 6 6 6 6 6 6 6 6 6 6 6 6         & ) O + ~ m ; m               & @ ",
"                                    .       6 6 6 6 6 6 6 6 6 6 6 6 6 6 6 6 6 6 6 6 6 6 6 6 6 6 6                           [ ]             ",
"                                  ' * ) +   7 6 6 6 6 6 6 6 6 6 6 6 6 6 6 6 6 6 6 6 6 6 6 6 6 6 6                         ! + ! @           ",
"                                  !   !     D 6 6 6 6 6 6 6 6 6 6 6 6 6 6 6 6 6 6 6 6 6 6 6 6 6 {.                        2 ].+ ]           ",
"                                              6 6 6 6 6 6 6 6 6 6 6 6 6 6 6 6 6 6 6 6 6 6 6 6 6                                             ",
"                                              6 6 6 6 6 6 6 6 6 6 6 6 6 6 6 6 6 6 6 6 6 6 6 6 6                                             ",
"                                    _         6 6 6 6 6 6 6 6 6 6 6 6 6 6 6 6 6 6 6 6 6 6 6 6 z                             1 m             ",
"                                t ^.Y ; ~     z 6 6 6 6 6 6 6 6 6 6 6 6 6 6 6 6 6 6 6 6 6 6 6 a               t           /.m ` s           ",
"                                  o l u       (.6 6 6 6 6 6 6 6 6 6 6 6 6 6 6 6 6 6 6 6 6 6 6                             t b m (           ",
"                                @ i 2 [       X 6 6 6 6 6 6 6 6 6 6 6 6 6 6 6 6 6 6 6 6 6 6 _.                          @ [ @ ,             ",
"; 1 =                           $ , } 2   :.; t 6 6 6 6 6 6 6 6 6 6 6 6 6 6 6 6 6 6 6 6 6 6 q                           , + ] P   = 1 d b   ",
"1 ~ 1         l m                         d ( / <.6 6 6 6 6 6 6 6 6 6 6 6 6 6 6 6 6 6 6 6 [.;           { l                       Q d { `   ",
"            m > / >                               6 6 6 6 6 6 6 6 6 6 6 6 6 6 6 6 6 6 6 6             u / 1 _                               ",
"              q   ;                               }.6 6 6 6 6 6 6 6 6 6 6 6 6 6 6 6 6 6 |.    x       { = { 1                               ",
"  1.K 2.H x                                   ].3.4.6 6 6 6 6 6 6 6 6 6 6 6 6 6 6 6 6 6     5.C K *.                                    5.6.",
"  7.8.1.9.                                    2 B *.6 6 6 6 6 6 6 6 6 6 6 6 6 6 6 6 6       5.K 0.3                                     a.b.",
"                                                    c.6 6 6 6 6 6 6 6 6 6 6 6 6 6 6 d.                                                      ",
"                                                      6 6 6 6 6 6 6 6 6 6 6 6 6 6 e.                                                        ",
"                    ,.      l                         f.6 6 6 6 6 6 6 6 6 6 6 6 g.            ,.            ,.                            ,.",
"  : + ] +       @ [ i . t 1 ~ ; t             : ,.. . t 6 6 6 6 6 6 6 6 6 6 6 6           , , & .         . h., @ q _ 1 ;               , i.",
"  @ ] j 2       [ ! ] )   < t ;               ].# , +   j.6 6 6 6 6 6 6 6 6 6             2 ! 2 .         ) + ! [ ; Q { =               ' [ ",
"                                    ^                   X 6 6 6 6 6 6 6 6 6     . :                                         : .             ",
"                                  O ! 4 :                 '.6 6 6 6 6 6 6     ! @ ) ]                                     P + ! @           ",
"                                  ,   ,                     k.6 6 6 6 6       2   ,                                         2 [ 2           ",
"                                                              z 6 6 l.                                                                      ",
"                                                                                                                                            ",
"                                    >                                           ; m.                                      l q ;             ",
"                                l 9 > ^.m                                     n.; u m                                     > o.> _           ",
"                                  p.  Q                                       q.  1                                         q.= =           ",
"l                               } r., ,     s.                              ! # 2 +     t                               ) t.@ +       t     "};
