/* XPM */
static char * floor_xpm[] = {
"70 70 119 2",
"  	c #73C7A1",
". 	c #7ACBA8",
"+ 	c #78CAA6",
"@ 	c #79CBA7",
"# 	c #7ACBA7",
"$ 	c #7BCCA8",
"% 	c #79CAA6",
"& 	c #7FCFAD",
"* 	c #7ECEAC",
"= 	c #71C6A0",
"- 	c #6AC19C",
"; 	c #6BC29C",
"> 	c #66BF99",
", 	c #76C9A4",
"' 	c #7DCDAB",
") 	c #7BCCA9",
"! 	c #7CCDAA",
"~ 	c #68C09A",
"{ 	c #6DC39D",
"] 	c #77CAA5",
"^ 	c #7ECEAB",
"/ 	c #6AC29C",
"( 	c #6DC39E",
"_ 	c #69C19B",
": 	c #77C9A5",
"< 	c #65BF99",
"[ 	c #75C8A3",
"} 	c #7DCDAA",
"| 	c #6CC29D",
"1 	c #70C59F",
"2 	c #74C8A2",
"3 	c #75C8A2",
"4 	c #7CCCA9",
"5 	c #61BC96",
"6 	c #6FC49E",
"7 	c #67C09A",
"8 	c #6DC49D",
"9 	c #6EC49E",
"0 	c #63BD97",
"a 	c #64BE98",
"b 	c #67BF99",
"c 	c #6FC59F",
"d 	c #81D0AF",
"e 	c #79CBA6",
"f 	c #80CFAE",
"g 	c #72C7A1",
"h 	c #6CC39D",
"i 	c #62BD97",
"j 	c #67BF9A",
"k 	c #68C09B",
"l 	c #6DC49E",
"m 	c #72C6A0",
"n 	c #6AC19B",
"o 	c #74C7A1",
"p 	c #83CEAB",
"q 	c #87D1AE",
"r 	c #86D0AD",
"s 	c #74C7A2",
"t 	c #7ACAA5",
"u 	c #88D1AE",
"v 	c #8FD4B3",
"w 	c #7BCAA6",
"x 	c #8BD2B0",
"y 	c #8DD3B2",
"z 	c #83CFAC",
"A 	c #82CEAB",
"B 	c #8ED4B3",
"C 	c #8AD2B0",
"D 	c #7ECCA8",
"E 	c #80CDA9",
"F 	c #77C9A3",
"G 	c #7DCBA7",
"H 	c #78C9A4",
"I 	c #6CC29C",
"J 	c #7DCEAB",
"K 	c #7ACCA8",
"L 	c #78CAA5",
"M 	c #5DBA94",
"N 	c #65BE98",
"O 	c #6FC49F",
"P 	c #7CCCAA",
"Q 	c #82CEAA",
"R 	c #85CFAC",
"S 	c #79CAA5",
"T 	c #7BCBA6",
"U 	c #89D2AF",
"V 	c #8CD3B1",
"W 	c #81CEAA",
"X 	c #7FCDA9",
"Y 	c #87D0AE",
"Z 	c #75C9A3",
"` 	c #7FCEAC",
" .	c #7FCFAC",
"..	c #63BD98",
"+.	c #79CAA7",
"@.	c #80CFAD",
"#.	c #62BC97",
"$.	c #77C9A4",
"%.	c #65BE99",
"&.	c #5FBB95",
"*.	c #71C59F",
"=.	c #5EBB95",
"-.	c #7CCBA6",
";.	c #7DCCA8",
">.	c #91D6B5",
",.	c #81CDAA",
"'.	c #7DCCA7",
").	c #76C8A3",
"!.	c #85D0AD",
"~.	c #7ACAA6",
"{.	c #7CCBA7",
"].	c #82D0AF",
"^.	c #82D1AF",
"/.	c #6FC59E",
"(.	c #73C7A3",
"_.	c #73C7A2",
":.	c #81D0AE",
"<.	c #72C6A1",
"[.	c #76C9A3",
"  . + @ #       $ % & * = - ; > =             @ , @ '       , ) * ! , ~ ; - {             ] @ ! ^         * * @ ) / - ( _               ) * ",
"  @ : +           ! , .   <   {               , . [ ,         }   !   <   {                 !   +         # , !   | 1 {                 !   ",
"                                  [ & 2 [                                     , ) ] 3                                     , ] ) 3           ",
"                                  & @ * ,                                     ' ] ! ]                                     . + 4 .           ",
"                                                                                                                                            ",
"                                                                                                                                            ",
"                                                                                                                                            ",
"                                  1 5 = 1                                     6 7 8 =                                     9 { ~ =           ",
"                                  0 9 a 1                                     _ 1 b c                                     { { _ ;           ",
"                                  !                                           ]                                           2 :               ",
"=                               d & e :     =                               f @ [ $     1 g                             & , @ )     g 1     ",
"_ h 9                           ,   @     { _ 1 /                           [ [ ] [   { i 9 7                             : [ ]   9 9 5 j   ",
"  {         1 9 k 6                       k = {           / _ = =                     c - l m         6 n m 6                     g 7   {   ",
"            m ; = a                                       ~ m < m                                     ~ 9 / {                               ",
"  2 o p 3                                     o 3 q o 2                                     3 r 3 s                                     3 t ",
"  p p u v 2                                   w x y z A                                   o B C D D                                     y D ",
"    E F G                                       E o E                                       t   E                                       3 H ",
"                                                                                                                                            ",
"                                                                                                                                            ",
"    , [             '       |                     +             '       I                   [ )             ! 2     h                     J ",
"  # + @ #       K + & * = ; / > =             % , @ '       , K & ! , k / / {             ] @ ' J         * * @ ) ; n 9 _               $ & ",
"  , [ ,           @ [ ]   ;   c     ,         [ ] 2 [         @   @   ;   c     [ 2         @   ,         ] [ @   6 = c     2 [         @   ",
"                                  # d ] +                                     ! ' + L                                     ! + ' +           ",
"                                  4   4                                       :   K 2                                     2 , + :           ",
"                                                                                                                                            ",
"                                                                                                                                            ",
"                                    6                                           1 m                                         m 1             ",
"                                g _ M { h                                     > < ; {                                     > | N {           ",
"                                  7   7                                       9   _ =                                     m 6 { 9           ",
"                                  !                                           ]                                           2 ,               ",
"6                               & ! ) ,     O                               J @ ] .     h =                             ) + @ P     m h     ",
"; _ 9           1               2   ,     ~ / { -           =               s 2 [ 2   ; i { >           =                 3 2 [   l ; < a   ",
"  c         9 ; _ ;                       { m c           < _ 6 1                     = 9 1           I n = h                       h   c   ",
"              9   ~                                       {   ~                                       ; 1 ; 1                               ",
"  o   Q 2                                       s r   o                                     2 R 3 o                                     2 S ",
"  T U Q V o                                   F V W C T                                     u X Y H                                     A D ",
"    s   o                                       s   s                                           s                                           ",
"                                                                                                                                            ",
"                                                                                                                                            ",
"  3 : , [       Z 2 * , g m / 1 g             3   + ,       2 2 ` [ 2 = / = =             2 [ } ,         , J [ , = ; m 1               3  .",
"  ) @ K ]       + ' ) & m ..6 < m             +.. + !       [ & @ @.[ #.6 _ c             , ' + ^         & ) J + ~ h ; h               & @ ",
"                                    .                                           L [                                         [ ]             ",
"                                  ' * ) +                                     ^ $ K +                                     ! + ! @           ",
"                                  !   !                                       ]   ) 2                                     2 $.+ ]           ",
"                                                                                                                                            ",
"                                                                                                                                            ",
"                                    _                                           h 1                                         1 h             ",
"                                m %.M ; ~                         m           &.%.I n                         m           &.h N n           ",
"                                  j g 7                                       l g _ =                                     m 9 h (           ",
"                                @ d 2 [                                     @ .   ,                                     @ [ @ ,             ",
"; 1 =                           $ , } 2   *.; m 1                           + ] @ +   = < c 6                           , + ] K   = 1 a 9   ",
"1 ~ 1         g h                         a ( / 9         m {                         I a ; ;           { g                       c a { N   ",
"            h > / >                                       =.; ; 6                                     7 / 1 _                               ",
"              6   ;                               o       6   ;                               o       { = { 1                               ",
"  -.H C E o                                   $.;.>.S T                                     ,.v H S                                     ,.'.",
"  ).q -.!.                                    2 u S q ).                                    ,.H r 3                                     ~.{.",
"                                                                                                                                            ",
"                                                                                                                                            ",
"                    s       g                                   s       g                     s             s                             s ",
"  : + ] +       @ [ d . m 1 ~ ; m             : s . .       [ , ].+ Z 9 ~ 9 9             , , & .         . f , @ 6 _ 1 ;               , ^.",
"  @ ] e 2       [ ! ] )   < m ;               $.# , +       s ' [ ' s %.m I m             2 ! 2 .         ) + ! [ ; c { =               ' [ ",
"                                    ^                                           . :                                         : .             ",
"                                  J ! 4 :                                     ! @ ) ]                                     K + ! @           ",
"                                  ,   ,                                       2   ,                                         2 [ 2           ",
"                                                                                                                                            ",
"                                                                                                                                            ",
"                                    >                                           ; /.                                      g 6 ;             ",
"                                g 5 > %.h                                     i ; 7 h                                     > I > _           ",
"                                  (.  c                                       _.  1                                         _.= =           ",
"g                               } :., ,     <.                              ! # 2 +     m                               ) [.@ +       m     "};
