/* XPM */
static char * pichu_xpm[] = {
"70 70 416 2",
"  	c #73C7A1",
". 	c #7ACBA8",
"+ 	c #78CAA6",
"@ 	c #79CBA7",
"# 	c #7ACBA7",
"$ 	c #7BCCA8",
"% 	c #79CAA6",
"& 	c #7FCFAD",
"* 	c #7ECEAC",
"= 	c #71C6A0",
"- 	c #6AC19C",
"; 	c #6BC29C",
"> 	c #66BF99",
", 	c #76C9A4",
"' 	c #7DCDAB",
") 	c #7BCCA9",
"! 	c #7CCDAA",
"~ 	c #68C09A",
"{ 	c #6DC39D",
"] 	c #77CAA5",
"^ 	c #7ECEAB",
"/ 	c #6AC29C",
"( 	c #6DC39E",
"_ 	c #69C19B",
": 	c #77C9A5",
"< 	c #65BF99",
"[ 	c #75C8A3",
"} 	c #7DCDAA",
"| 	c #6CC29D",
"1 	c #70C59F",
"2 	c #74C8A2",
"3 	c #75C8A2",
"4 	c #7CCCA9",
"5 	c #61BC96",
"6 	c #6FC49E",
"7 	c #67C09A",
"8 	c #6DC49D",
"9 	c #6EC49E",
"0 	c #63BD97",
"a 	c #64BE98",
"b 	c #67BF99",
"c 	c #6FC59F",
"d 	c #81D0AF",
"e 	c #79CBA6",
"f 	c #80CFAE",
"g 	c #72C7A1",
"h 	c #6CC39D",
"i 	c #62BD97",
"j 	c #67BF9A",
"k 	c #68C09B",
"l 	c #6DC49E",
"m 	c #72C6A0",
"n 	c #6AC19B",
"o 	c #61A988",
"p 	c #1C372B",
"q 	c #5A9E7F",
"r 	c #74C7A1",
"s 	c #83CEAB",
"t 	c #71C39E",
"u 	c #1F3C2F",
"v 	c #000000",
"w 	c #87D1AE",
"x 	c #86D0AD",
"y 	c #74C7A2",
"z 	c #7ACAA5",
"A 	c #88D1AE",
"B 	c #8FD4B3",
"C 	c #599D7E",
"D 	c #5FA787",
"E 	c #7BCAA6",
"F 	c #8BD2B0",
"G 	c #8DD3B2",
"H 	c #83CFAC",
"I 	c #82CEAB",
"J 	c #8ED4B3",
"K 	c #8AD2B0",
"L 	c #7ECCA8",
"M 	c #80CDA9",
"N 	c #77C9A3",
"O 	c #7DCBA7",
"P 	c #3C6C56",
"Q 	c #13291F",
"R 	c #67B290",
"S 	c #78C9A4",
"T 	c #284B3B",
"U 	c #6CBC98",
"V 	c #64AE8D",
"W 	c #867D34",
"X 	c #35614D",
"Y 	c #589A7C",
"Z 	c #A99E44",
"` 	c #383411",
" .	c #F9E968",
"..	c #4C826A",
"+.	c #6CC29C",
"@.	c #7DCEAB",
"#.	c #7ACCA8",
"$.	c #498369",
"%.	c #DFD15C",
"&.	c #CBBE53",
"*.	c #EADB61",
"=.	c #F9EA68",
"-.	c #736B2C",
";.	c #69AE91",
">.	c #3A6853",
",.	c #383412",
"'.	c #FEEE6A",
").	c #F0E164",
"!.	c #284B3C",
"~.	c #345F4B",
"{.	c #847B33",
"].	c #D4C757",
"^.	c #599C7E",
"/.	c #71BA9B",
"(.	c #73C19F",
"_.	c #78CAA5",
":.	c #9A903D",
"<.	c #42765F",
"[.	c #386350",
"}.	c #203F31",
"|.	c #498268",
"1.	c #57997C",
"2.	c #65B08E",
"3.	c #B5AA4A",
"4.	c #F8E867",
"5.	c #605A23",
"6.	c #4F8B70",
"7.	c #3E6F59",
"8.	c #6EC09B",
"9.	c #DCCE5B",
"0.	c #63AC8B",
"a.	c #CFCE6C",
"b.	c #E6D85F",
"c.	c #E4D55E",
"d.	c #B9AD4B",
"e.	c #958B3B",
"f.	c #4B461A",
"g.	c #65AF8D",
"h.	c #DED465",
"i.	c #AFBF76",
"j.	c #DACC5A",
"k.	c #6B6428",
"l.	c #173025",
"m.	c #AFB96D",
"n.	c #A0C184",
"o.	c #B6C87C",
"p.	c #D0D070",
"q.	c #D0CF6E",
"r.	c #BDCA79",
"s.	c #ABC480",
"t.	c #80B98C",
"u.	c #86BB8C",
"v.	c #BFB24E",
"w.	c #65BE98",
"x.	c #4A8E71",
"y.	c #F6E766",
"z.	c #E1D563",
"A.	c #DCD263",
"B.	c #C4B850",
"C.	c #0C0B02",
"D.	c #10241B",
"E.	c #5FA686",
"F.	c #86BE8F",
"G.	c #DED668",
"H.	c #ECDD62",
"I.	c #C6B951",
"J.	c #72C29E",
"K.	c #B4C276",
"L.	c #D3C658",
"M.	c #D6C858",
"N.	c #FAEA68",
"O.	c #F1E264",
"P.	c #92883A",
"Q.	c #2F5645",
"R.	c #6CBB97",
"S.	c #7CCCAA",
"T.	c #89AB76",
"U.	c #FDED69",
"V.	c #EEDF63",
"W.	c #DFD15D",
"X.	c #F6E767",
"Y.	c #C2B64F",
"Z.	c #D4D06A",
"`.	c #B9B8B3",
" +	c #D1CAA0",
".+	c #FBEB69",
"++	c #B6B3A0",
"@+	c #C7C7C7",
"#+	c #A39941",
"$+	c #E5D75F",
"%+	c #909858",
"&+	c #AAA14A",
"*+	c #504A1C",
"=+	c #386550",
"-+	c #67B491",
";+	c #74B890",
">+	c #FCEC69",
",+	c #F5E666",
"'+	c #060601",
")+	c #CBCBCB",
"!+	c #ABABAB",
"~+	c #A8A8A8",
"{+	c #D1D1D1",
"]+	c #E2D45E",
"^+	c #CACC6E",
"/+	c #70C39E",
"(+	c #60A887",
"_+	c #518F73",
":+	c #4D876D",
"<+	c #82CEAA",
"[+	c #9CC085",
"}+	c #F4E566",
"|+	c #010100",
"1+	c #998F3D",
"2+	c #FDED6A",
"3+	c #E4D65E",
"4+	c #5E5822",
"5+	c #E1D35D",
"6+	c #6BB894",
"7+	c #85CFAC",
"8+	c #79CAA5",
"9+	c #7BCBA6",
"0+	c #89D2AF",
"a+	c #8CD3B1",
"b+	c #B5C77B",
"c+	c #DBCD5A",
"d+	c #C1B44F",
"e+	c #E7D860",
"f+	c #FAEB68",
"g+	c #EDDE62",
"h+	c #95BE87",
"i+	c #7FCDA9",
"j+	c #87D0AE",
"k+	c #B5C87D",
"l+	c #EAD669",
"m+	c #EAD768",
"n+	c #8E1C07",
"o+	c #9F1414",
"p+	c #C55D5C",
"q+	c #E67372",
"r+	c #D36968",
"s+	c #E0CC5E",
"t+	c #E4CB6D",
"u+	c #E4CF6A",
"v+	c #7EAA89",
"w+	c #EA94A4",
"x+	c #EC95A5",
"y+	c #E8CD73",
"z+	c #B0813A",
"A+	c #D06665",
"B+	c #D7968E",
"C+	c #F098A8",
"D+	c #CFA07D",
"E+	c #7DB88D",
"F+	c #E792A2",
"G+	c #DB9891",
"H+	c #D6B85C",
"I+	c #D56A69",
"J+	c #E1C76E",
"K+	c #ED96A6",
"L+	c #C8BF5A",
"M+	c #75C9A3",
"N+	c #B19690",
"O+	c #DA9094",
"P+	c #F2E264",
"Q+	c #D96C6B",
"R+	c #D28165",
"S+	c #E1CB6A",
"T+	c #E893A2",
"U+	c #7BA77B",
"V+	c #7FCFAC",
"W+	c #63BD98",
"X+	c #77BD9B",
"Y+	c #C9888C",
"Z+	c #DFC173",
"`+	c #DAA663",
" @	c #D9A164",
".@	c #D0A37B",
"+@	c #E3909F",
"@@	c #938978",
"#@	c #72C59F",
"$@	c #88C192",
"%@	c #E4D965",
"&@	c #EEDD64",
"*@	c #DE6F6E",
"=@	c #DEC45F",
"-@	c #EFE063",
";@	c #D1C456",
">@	c #B4C377",
",@	c #B6C87E",
"'@	c #99BF87",
")@	c #86BA8B",
"!@	c #B2BD70",
"~@	c #D8B75F",
"{@	c #CE945F",
"]@	c #E5D65F",
"^@	c #F5E566",
"/@	c #E7D960",
"(@	c #87BE8F",
"_@	c #9CBE83",
":@	c #F6E666",
"<@	c #E6D75F",
"[@	c #BEB24E",
"}@	c #CFC155",
"|@	c #CFC255",
"1@	c #A59A42",
"2@	c #514B1D",
"3@	c #F3E465",
"4@	c #86BD8E",
"5@	c #77C9A4",
"6@	c #8EBC8A",
"7@	c #EBDC62",
"8@	c #7E7531",
"9@	c #7C7430",
"0@	c #8F9A5C",
"a@	c #99B67A",
"b@	c #F3E365",
"c@	c #4C471A",
"d@	c #615A24",
"e@	c #CEC054",
"f@	c #2E5544",
"g@	c #5DA383",
"h@	c #7EBC91",
"i@	c #C6CB73",
"j@	c #F2E365",
"k@	c #8E8438",
"l@	c #534D1E",
"m@	c #D1C356",
"n@	c #524D1D",
"o@	c #7D7530",
"p@	c #DDCF5B",
"q@	c #4F4A1C",
"r@	c #65BE99",
"s@	c #5DBA94",
"t@	c #6DBD99",
"u@	c #8EBC89",
"v@	c #B8BE6D",
"w@	c #AA9F44",
"x@	c #2E5443",
"y@	c #5FBB95",
"z@	c #C1B54F",
"A@	c #244838",
"B@	c #4D896E",
"C@	c #11281E",
"D@	c #6EB893",
"E@	c #F7E767",
"F@	c #978D3D",
"G@	c #8EBA8B",
"H@	c #6EBB99",
"I@	c #71C59F",
"J@	c #B3BB6C",
"K@	c #E6D760",
"L@	c #A69C45",
"M@	c #CFC256",
"N@	c #D5D16C",
"O@	c #86C196",
"P@	c #5CA283",
"Q@	c #1A392C",
"R@	c #12281F",
"S@	c #70BB96",
"T@	c #9E9749",
"U@	c #BCB04E",
"V@	c #EDDE63",
"W@	c #B8AF4F",
"X@	c #ABA048",
"Y@	c #C6B953",
"Z@	c #F7E867",
"`@	c #F1E469",
" #	c #77BC93",
".#	c #60B893",
"+#	c #4B8A6F",
"@#	c #60AF8C",
"##	c #B5C478",
"$#	c #C9BC54",
"%#	c #AEA349",
"&#	c #9A903F",
"*#	c #91B881",
"=#	c #83B98A",
"-#	c #6BBA97",
";#	c #88AD7A",
">#	c #EBDD62",
",#	c #E3D55E",
"'#	c #97BF87",
")#	c #E8D961",
"!#	c #60B08D",
"~#	c #A8C07D",
"{#	c #D7CC5E",
"]#	c #6BBA96",
"^#	c #7CCBA6",
"/#	c #7DCCA8",
"(#	c #91D6B5",
"_#	c #F4E465",
":#	c #6EBE9A",
"<#	c #98BF87",
"[#	c #B5C87E",
"}#	c #97BF88",
"|#	c #81CDAA",
"1#	c #7DCCA7",
"2#	c #76C8A3",
"3#	c #85D0AD",
"4#	c #E2D664",
"5#	c #DBD366",
"6#	c #7ACAA6",
"7#	c #7CCBA7",
"8#	c #BBC879",
"9#	c #9CBE84",
"0#	c #AAB971",
"a#	c #A7BF7C",
"b#	c #82D0AF",
"c#	c #82D1AF",
"d#	c #6FC59E",
"e#	c #73C7A3",
"f#	c #73C7A2",
"g#	c #81D0AE",
"h#	c #72C6A1",
"i#	c #76C9A3",
"  . + @ #       $ % & * = - ; > =             @ , @ '       , ) * ! , ~ ; - {             ] @ ! ^         * * @ ) / - ( _               ) * ",
"  @ : +           ! , .   <   {               , . [ ,         }   !   <   {                 !   +         # , !   | 1 {                 !   ",
"                                  [ & 2 [                                     , ) ] 3                                     , ] ) 3           ",
"                                  & @ * ,                                     ' ] ! ]                                     . + 4 .           ",
"                                                                                                                                            ",
"                                                                                                                                            ",
"                                                                                                                                            ",
"                                  1 5 = 1                                     6 7 8 =                                     9 { ~ =           ",
"                                  0 9 a 1                                     _ 1 b c                                     { { _ ;           ",
"                                  !                                           ]                                           2 :               ",
"=                               d & e :     =                               f @ [ $     1 g                             & , @ )     g 1     ",
"_ h 9                           ,   @     { _ 1 /                           [ [ ] [   { i 9 7                             : [ ]   9 9 5 j   ",
"  {         1 9 k 6                       k = {           / _ = =                     c - l m         6 n m 6                     g 7   {   ",
"            m ; = a                 o p q                 ~ m < m                                     ~ 9 / {                               ",
"  2 r s 3                         t u v v q   r 3 w r 2                                     3 x 3 y                                     3 z ",
"  s s A B 2                       C v v v v D E F G H I                                   r J K L L                                     G L ",
"    M N O                         P v v v v Q R M r M                                       z   M                                       3 S ",
"                                t v v v v v v T U                                                                                           ",
"                                V v v v v W v v X t                                                                                         ",
"    , [             '       |   Y v v Z `  .W v v ..            '       +.                  [ )             ! 2     h                     @.",
"  # + @ #       #.+ & * = ; / > $.v v %.&.*.=.-.v v ;.      , #.& ! , k / / {             ] @ ' @.        * * @ ) ; n 9 _               $ & ",
"  , [ ,           @ [ ]   ;   c >.v ,.'.'.'.'.).` v !.t       @   @   ;   c     [ 2         @   ,         ] [ @   6 = c     2 [         @   ",
"                                ~.v {.'.'.'.'.'.].v v ^.                      ! /.(._.                                    ! + ' +           ",
"                                Q v Z '.'.'.'.'.'.:.v <.                    U [.v v v }.~.|.1.2.m                         2 , + :           ",
"                                v v 3.'.'.'.'.'.'.4.5.6.                  U T v v v v v v v v v Q 7.q 8.                                    ",
"                                v v &.'.'.'.'.'.'.'.9.0.                t a.).b.b.c.&.d.e.f.v v v v v v 7.g.                                ",
"                                v v &.'.'.'.'.'.'.'.h.                  i.'.'.'.'.'.'.'.'.'.j.k.v v v v v l.                m 1             ",
"                                $.v &.'.'.'.'.'.'.'.m.n.o.p.q.r.s.t.t u.=.'.'.'.'.'.'.'.'.'.v.v v v v v Q 2.              > | w.{           ",
"                                  x.&.'.'.'.'.'.'.c.y.'.'.'.'.'.'.'.z.A.'.'.'.'.'.'.'.'.'.=.b.B.C.v v D.E.                m 6 { 9           ",
"                                  ! F.G.'.'.'.H.'.'.'.'.'.'.'.'.'.'.'.'.'.'.'.'.'.'.'.'.'.'.I.` v v Q 2.                  2 ,               ",
"6                               & ! ) J.K.L.M.N.'.'.'.'.'.'.'.'.'.'.'.'.'.'.'.'.'.'.'.'.O.P.v v v Q.R.                  ) + @ S.    m h     ",
"; _ 9           1               2   ,     T.=.'.'.'.'.'.'.'.'.'.'.'.U.V.'.'.j.W.X.'.=.Y.` v v v 6.t     =                 3 2 [   l ; < a   ",
"  c         9 ; _ ;                       Z.'.&.`. +'.'.'.'.'.'.'..+++@+#+'.'.$+%+&+*+v v v =+-+      +.n = h                       h   c   ",
"              9   ~                     ;+>+,+'+)+!+'.'.'.'.'.'.'.b.~+{+v ]+'.'.^+/+(+_+:+2.          ; 1 ; 1                               ",
"  r   <+2                               [+'.}+|+v 1+'.'.2+3+'.'.'..+4+v v 5+'.'. .6+        2 7+3 r                                     2 8+",
"  9+0+<+a+r                             b+'.'.c+d+=.'.>+e+b.b.f+'.'.g+Z d+'.'.'.'.h+        A i+j+S                                     I L ",
"    y   r                               k+l+m+'.'.'.'.n+o+p+q+r+s+'.'.'.=.t+u+'.'.h+            y                                           ",
"                                        v+w+x+y+'.'.'.z+A+q+q+q+b.'.'.,+B+C+C+D+'.E+                                                        ",
"                                        U F+C+G+'.'.'.H+q+q+q+I+ .'.'.J+C+C+C+K+L+t                                                         ",
"  3 : , [       M+2 * , g m / 1 g         N+C+O+'.'.'.P+Q+q+q+R+'.'.'.S+C+C+C+T+U+        2 [ } ,         , @.[ , = ; m 1               3 V+",
"  ) @ #.]       + ' ) & m W+6 < m         X+Y+Z+'.'.'.'.`+q+q+ @'.'.'.>+.@T++@@@#@        , ' + ^         & ) @.+ ~ h ; h               & @ ",
"                                    .       $@%@'.'.'.'.&@*@q+=@'.'.'.'.'.-@;@>@,@'@U                                       [ ]             ",
"                                  ' * ) + )@b+!@j.g+'.'.'.~@{@N.'.'.'.'.]@$+'.'.'.^@/@(@                                  ! + ! @           ",
"                                  !   ! _@9.'.'.'.:@<@[@}@b.b.b.b.|@1@2@3@'.'.'.'.e+).4@                                  2 5@+ ]           ",
"                                        6@7@'.'.'.'.'.8@v v v v v v v 9@'.'.'.'.'.=.0@                                                      ",
"                                          a@X.'.'.'.b@]+v v c@` d@v v .+'.'.'.=.e@5.v f@g@                                                  ",
"                                    _       h@i@j@'.e+'.k@l@).m@).n@o@'.N.b.p@q@v v v v v f@g@                              1 h             ",
"                                m r@s@; ~       t@u@v@'.|@w@'.'.'.]+j.'.'.'.b.v v v v v v v v x@E.            m           y@h w.n           ",
"                                  j g 7             h+'.'.^@'.'.'.'.'.'.'.'.z@A@B@C@v v v v v v v m                       m 9 h (           ",
"                                @ d 2 [             D@E@'.'.'.'.'.'.'.'.'.j@F@G@m H@7.v v v v Q o                       @ [ @ ,             ",
"; 1 =                           $ , } 2   I@; m 1     J@'.'.'.'.'.'.'.'.K@L@M@'.N@O@  P@Q@v R@2.                        , + ] #.  = 1 a 9   ",
"1 ~ 1         g h                         a ( / 9   S@T@U@V@'.'.'.E@h.W@X@Y@Z@'.H.`@ #+..#+#@#          { g                       c a { w.  ",
"            h > / >                                 ##$#%#%#&#*#=#-#  ;#>#'.'.}+=.,#'#                7 / 1 _                               ",
"              6   ;                               r h.'.3@]+)#!#        ~#^@'.3@%.{#]#        r       { = { 1                               ",
"  ^#S K M r                                   5@/#(#b.'.'.'._#:#          R.<#[#}#t@        |#B S 8+                                    |#1#",
"  2#w ^#3#                                    2 A 8+4#>#'.).5#                              |#S x 3                                     6#7#",
"                                                    8#$+'.<@9#                                                                              ",
"                                                    t 0#M.a#                                                                                ",
"                    y       g                                   y       g                     y             y                             y ",
"  : + ] +       @ [ d . m 1 ~ ; m             : y . .       [ , b#+ M+9 ~ 9 9             , , & .         . f , @ 6 _ 1 ;               , c#",
"  @ ] e 2       [ ! ] )   < m ;               5@# , +       y ' [ ' y r@m +.m             2 ! 2 .         ) + ! [ ; c { =               ' [ ",
"                                    ^                                           . :                                         : .             ",
"                                  @.! 4 :                                     ! @ ) ]                                     #.+ ! @           ",
"                                  ,   ,                                       2   ,                                         2 [ 2           ",
"                                                                                                                                            ",
"                                                                                                                                            ",
"                                    >                                           ; d#                                      g 6 ;             ",
"                                g 5 > r@h                                     i ; 7 h                                     > +.> _           ",
"                                  e#  c                                       f#  1                                         f#= =           ",
"g                               } g#, ,     h#                              ! # 2 +     m                               ) i#@ +       m     "};
