/* XPM */
static char * pikachu_xpm[] = {
"70 70 586 2",
"  	c #73C7A1",
". 	c #7ACBA8",
"+ 	c #78CAA6",
"@ 	c #79CBA7",
"# 	c #7ACBA7",
"$ 	c #7BCCA8",
"% 	c #79CAA6",
"& 	c #7FCFAD",
"* 	c #7ECEAC",
"= 	c #71C6A0",
"- 	c #6AC19C",
"; 	c #6BC29C",
"> 	c #66BF99",
", 	c #76C9A4",
"' 	c #7DCDAB",
") 	c #7BCCA9",
"! 	c #7CCDAA",
"~ 	c #68C09A",
"{ 	c #6DC39D",
"] 	c #77CAA5",
"^ 	c #7ECEAB",
"/ 	c #6AC29C",
"( 	c #6DC39E",
"_ 	c #69C19B",
": 	c #77C9A5",
"< 	c #65BF99",
"[ 	c #75C8A3",
"} 	c #7DCDAA",
"| 	c #6CBA97",
"1 	c #498067",
"2 	c #14241C",
"3 	c #6CC29D",
"4 	c #70C59F",
"5 	c #74C8A2",
"6 	c #72C5A0",
"7 	c #549276",
"8 	c #10221A",
"9 	c #000000",
"0 	c #2C4B3E",
"a 	c #75C8A2",
"b 	c #6CBC98",
"c 	c #385F4D",
"d 	c #467962",
"e 	c #7CCCA9",
"f 	c #66B08F",
"g 	c #273E33",
"h 	c #5C9D7F",
"i 	c #66B08E",
"j 	c #13291F",
"k 	c #060400",
"l 	c #5D4D06",
"m 	c #493C04",
"n 	c #050505",
"o 	c #6FBF9B",
"p 	c #65B08E",
"q 	c #414221",
"r 	c #A98D13",
"s 	c #E1BD1D",
"t 	c #FED522",
"u 	c #FFD622",
"v 	c #BDB860",
"w 	c #61BC96",
"x 	c #6CBB97",
"y 	c #AA9330",
"z 	c #F6CE20",
"A 	c #FBD321",
"B 	c #7DB388",
"C 	c #67C09A",
"D 	c #6DC49D",
"E 	c #6EC49E",
"F 	c #63BD97",
"G 	c #64BE98",
"H 	c #71C49E",
"I 	c #D2BD4D",
"J 	c #D0B947",
"K 	c #67BF99",
"L 	c #6FC59F",
"M 	c #ADB973",
"N 	c #8BB483",
"O 	c #81D0AF",
"P 	c #79CBA6",
"Q 	c #7DBD94",
"R 	c #F6CF26",
"S 	c #D4BB4A",
"T 	c #80CEAD",
"U 	c #72C7A1",
"V 	c #6CC39D",
"W 	c #CBBE5A",
"X 	c #F5C721",
"Y 	c #85B58B",
"Z 	c #62BD97",
"` 	c #67BF9A",
" .	c #68C09B",
"..	c #6FC49E",
"+.	c #7DB98F",
"@.	c #FBD221",
"#.	c #FCD022",
"$.	c #B2A262",
"%.	c #6DC49E",
"&.	c #72C6A0",
"*.	c #6AC19B",
"=.	c #C2BE67",
"-.	c #FDD222",
";.	c #D1A03C",
">.	c #71C09B",
",.	c #74C7A1",
"'.	c #83CEAB",
").	c #87D1AE",
"!.	c #74C39F",
"~.	c #EFC92B",
"{.	c #FCD122",
"].	c #DE9F20",
"^.	c #7FB48D",
"/.	c #86D0AD",
"(.	c #74C7A2",
"_.	c #7ACAA5",
":.	c #88D1AE",
"<.	c #8FD4B3",
"[.	c #7BCAA6",
"}.	c #8BD2B0",
"|.	c #8DD3B2",
"1.	c #83CFAC",
"2.	c #94BC8E",
"3.	c #E2A020",
"4.	c #90AC80",
"5.	c #8ED4B3",
"6.	c #8AD2B0",
"7.	c #7ECCA8",
"8.	c #80CDA9",
"9.	c #77C9A3",
"0.	c #7DCBA7",
"a.	c #BBBD6C",
"b.	c #F8C922",
"c.	c #E09C20",
"d.	c #96A87F",
"e.	c #78C9A4",
"f.	c #D3BF4F",
"g.	c #F5CE20",
"h.	c #FCD422",
"i.	c #EAC31F",
"j.	c #E8C21E",
"k.	c #E5C43A",
"l.	c #CDBF57",
"m.	c #ACBC76",
"n.	c #79B890",
"o.	c #73C09C",
"p.	c #D6B425",
"q.	c #F9D121",
"r.	c #D8C048",
"s.	c #9ABA83",
"t.	c #75C3A0",
"u.	c #DAC043",
"v.	c #D7C049",
"w.	c #82BA8F",
"x.	c #7DCEAB",
"y.	c #7ACCA8",
"z.	c #BDBE6C",
"A.	c #F5CE21",
"B.	c #9EB67A",
"C.	c #7CBF98",
"D.	c #F6CF23",
"E.	c #FCD322",
"F.	c #A5B472",
"G.	c #C3BE65",
"H.	c #94BA84",
"I.	c #7ABD95",
"J.	c #F8D021",
"K.	c #F0C91F",
"L.	c #9A8110",
"M.	c #C0B18B",
"N.	c #EFCC56",
"O.	c #E9C31E",
"P.	c #BDBB66",
"Q.	c #78BD95",
"R.	c #71C39E",
"S.	c #70C29D",
"T.	c #7BC097",
"U.	c #BDC06D",
"V.	c #705D09",
"W.	c #292929",
"X.	c #FFFFFF",
"Y.	c #D0CCC3",
"Z.	c #F5CF27",
"`.	c #AFBB72",
" +	c #8FBB88",
".+	c #CBBC55",
"++	c #EDC828",
"@+	c #F0CC2E",
"#+	c #CABA54",
"$+	c #73C39E",
"%+	c #73C39D",
"&+	c #F2CE2F",
"*+	c #090600",
"=+	c #797979",
"-+	c #42403E",
";+	c #F7D021",
">+	c #DEC445",
",+	c #85BD91",
"'+	c #87B889",
")+	c #EBCB3B",
"!+	c #CEBF57",
"~+	c #72C49F",
"{+	c #B4BB70",
"]+	c #F6CF21",
"^+	c #B09314",
"/+	c #B49615",
"(+	c #F3CE2A",
"_+	c #9DBB80",
":+	c #8FBA87",
"<+	c #B8B866",
"[+	c #9D9F80",
"}+	c #E73511",
"|+	c #F22C12",
"1+	c #E47715",
"2+	c #EBC51E",
"3+	c #ECC61F",
"4+	c #EDC61F",
"5+	c #EEC81F",
"6+	c #E4BC1E",
"7+	c #FED322",
"8+	c #AAB570",
"9+	c #65BE98",
"0+	c #7DB28C",
"a+	c #FCD321",
"b+	c #E26B18",
"c+	c #FE2F13",
"d+	c #E58C17",
"e+	c #F3CB20",
"f+	c #B59714",
"g+	c #F3F3F3",
"h+	c #C3C3C3",
"i+	c #CCAB19",
"j+	c #DDB01D",
"k+	c #F2BD22",
"l+	c #AEB76D",
"m+	c #69B391",
"n+	c #F0C51F",
"o+	c #F43512",
"p+	c #EA5613",
"q+	c #F4CD20",
"r+	c #221B01",
"s+	c #CFCFCF",
"t+	c #9C9C9C",
"u+	c #6A5808",
"v+	c #A39A5A",
"w+	c #E39D21",
"x+	c #FED422",
"y+	c #FDD422",
"z+	c #A0B87C",
"A+	c #68B491",
"B+	c #E59618",
"C+	c #E76914",
"D+	c #E7C21E",
"E+	c #A17711",
"F+	c #C39A17",
"G+	c #BA9215",
"H+	c #D3AD1A",
"I+	c #5E4E06",
"J+	c #8A730D",
"K+	c #E5C539",
"L+	c #71C49F",
"M+	c #B0985D",
"N+	c #F3BF22",
"O+	c #8BBB8C",
"P+	c #7CCCAA",
"Q+	c #6AB593",
"R+	c #EE4813",
"S+	c #FA2E13",
"T+	c #E8AF1C",
"U+	c #DAB31B",
"V+	c #6D0807",
"W+	c #650606",
"X+	c #6E0807",
"Y+	c #6E1907",
"Z+	c #C7A118",
"`+	c #F7CF21",
" @	c #E3BE1D",
".@	c #88710D",
"+@	c #8E760E",
"@@	c #BCB860",
"#@	c #66B893",
"$@	c #CD9D42",
"%@	c #E8C93C",
"&@	c #72C19C",
"*@	c #72C19D",
"=@	c #E2A01A",
"-@	c #E7A51A",
";@	c #D4AA1E",
">@	c #A01A26",
",@	c #A91C29",
"'@	c #9C1925",
")@	c #7F1018",
"!@	c #86580C",
"~@	c #98B87E",
"{@	c #7AB893",
"]@	c #E4B72E",
"^@	c #BFBF69",
"/@	c #E5BF23",
"(@	c #F1CB20",
"_@	c #D99D31",
":@	c #CA3A45",
"<@	c #C73843",
"[@	c #B12531",
"}@	c #86131C",
"|@	c #F1C41F",
"1@	c #E58417",
"2@	c #E76D14",
"3@	c #E58F18",
"4@	c #78B891",
"5@	c #81B88E",
"6@	c #D3B42C",
"7@	c #7FBC91",
"8@	c #82CEAA",
"9@	c #CCB150",
"0@	c #E6C11E",
"a@	c #E39942",
"b@	c #F05460",
"c@	c #EF535F",
"d@	c #CB3C46",
"e@	c #AB5F23",
"f@	c #F34013",
"g@	c #E37815",
"h@	c #67B491",
"i@	c #85CFAC",
"j@	c #6AB391",
"k@	c #49583A",
"l@	c #977E10",
"m@	c #C3A317",
"n@	c #CFAD1A",
"o@	c #E4BF1D",
"p@	c #DFBA1C",
"q@	c #88935C",
"r@	c #79CAA5",
"s@	c #7BCBA6",
"t@	c #89D2AF",
"u@	c #8CD3B1",
"v@	c #ABA269",
"w@	c #E7A53D",
"x@	c #E9525D",
"y@	c #E5BC1F",
"z@	c #E68617",
"A@	c #F52D12",
"B@	c #D6B31B",
"C@	c #6DBA97",
"D@	c #82CEAB",
"E@	c #8AAD83",
"F@	c #F1BA21",
"G@	c #EEC71F",
"H@	c #E5B62D",
"I@	c #EF5460",
"J@	c #DC9E39",
"K@	c #E74C12",
"L@	c #DCB91C",
"M@	c #7D670B",
"N@	c #539074",
"O@	c #6FC09B",
"P@	c #D9971F",
"Q@	c #D97C48",
"R@	c #DA5755",
"S@	c #E0A13A",
"T@	c #E59318",
"U@	c #FB2E13",
"V@	c #E6AA1B",
"W@	c #AA8E13",
"X@	c #4C411E",
"Y@	c #2C5241",
"Z@	c #B2995A",
"`@	c #F1BB21",
" #	c #FAD121",
".#	c #E57E16",
"+#	c #E92911",
"@#	c #E82D11",
"##	c #CC6C18",
"$#	c #F2BC22",
"%#	c #F6CE26",
"&#	c #7ABE95",
"*#	c #75C9A3",
"=#	c #80AB83",
"-#	c #E29B21",
";#	c #F2CB20",
">#	c #CF981C",
",#	c #E8AC21",
"'#	c #B5BB70",
")#	c #7FCFAC",
"!#	c #63BD98",
"~#	c #66BE99",
"{#	c #C09042",
"]#	c #EDB221",
"^#	c #F0B821",
"/#	c #EAAB21",
"(#	c #F6C622",
"_#	c #F3CC20",
":#	c #EBC51F",
"<#	c #E5C01E",
"[#	c #E4BA1E",
"}#	c #DDA01F",
"|#	c #FACD22",
"1#	c #EACA39",
"2#	c #79C8A6",
"3#	c #88AB82",
"4#	c #E19721",
"5#	c #FDD322",
"6#	c #E49F21",
"7#	c #E29921",
"8#	c #E8A721",
"9#	c #ECAF21",
"0#	c #F5C322",
"a#	c #F6CD21",
"b#	c #D39E1D",
"c#	c #A1BB7F",
"d#	c #73C6A0",
"e#	c #BD944F",
"f#	c #E59F21",
"g#	c #FBCE22",
"h#	c #E7A621",
"i#	c #EBAF21",
"j#	c #D7A61D",
"k#	c #EDB521",
"l#	c #FFD522",
"m#	c #DBC44B",
"n#	c #74C6A1",
"o#	c #81B491",
"p#	c #DC9320",
"q#	c #EAAD21",
"r#	c #D4A71C",
"s#	c #E7A821",
"t#	c #8CBB8B",
"u#	c #77C9A4",
"v#	c #88B58E",
"w#	c #DA9220",
"x#	c #E29A21",
"y#	c #D5A31D",
"z#	c #CBC05D",
"A#	c #94B481",
"B#	c #EFB621",
"C#	c #F8C822",
"D#	c #FAD221",
"E#	c #CF9B1C",
"F#	c #C49041",
"G#	c #79BE96",
"H#	c #B9BF71",
"I#	c #EAC41F",
"J#	c #70BD9A",
"K#	c #D4C153",
"L#	c #DBAA1D",
"M#	c #88B98B",
"N#	c #5FBB95",
"O#	c #D79A1E",
"P#	c #EBC938",
"Q#	c #6DBC98",
"R#	c #92BC8D",
"S#	c #BB801A",
"T#	c #D7901F",
"U#	c #A3BA7E",
"V#	c #C4BE67",
"W#	c #D2971D",
"X#	c #D8911F",
"Y#	c #CD891D",
"Z#	c #C4852B",
"`#	c #A09C66",
" $	c #A39F6A",
".$	c #A5A06A",
"+$	c #A4B175",
"@$	c #ADBD76",
"#$	c #A7BB7B",
"$$	c #EFCB32",
"%$	c #D49A1D",
"&$	c #CD9241",
"*$	c #9BBD84",
"=$	c #DCA71E",
"-$	c #C5984B",
";$	c #D1C35A",
">$	c #E3B31F",
",$	c #B99451",
"'$	c #75BB96",
")$	c #7CCBA6",
"!$	c #73BF99",
"~$	c #F7CF20",
"{$	c #E6BC21",
"]$	c #97A375",
"^$	c #81CDAA",
"/$	c #7DCCA7",
"($	c #76C8A3",
"_$	c #85D0AD",
":$	c #ABBC78",
"<$	c #EDC92C",
"[$	c #7ACAA6",
"}$	c #7CCBA7",
"|$	c #DCC44C",
"1$	c #72BA95",
"2$	c #98B982",
"3$	c #70C19C",
"4$	c #BFBF6B",
"5$	c #E1BD31",
"6$	c #D8C450",
"7$	c #80CFAE",
"8$	c #82D1AF",
"9$	c #A9A269",
"0$	c #E1C951",
"a$	c #75BE99",
"b$	c #CD923A",
"c$	c #E6A221",
"d$	c #E6A321",
"e$	c #E7A521",
"f$	c #E9A821",
"g$	c #EBAE21",
"h$	c #EDB321",
"i$	c #F5C222",
"j$	c #FACC22",
"k$	c #FCCF22",
"l$	c #F3BE22",
"m$	c #BAAA6C",
"n$	c #78B894",
"o$	c #BE8938",
"p$	c #DA9730",
"q$	c #87C39D",
"r$	c #79BC95",
"s$	c #B59B5C",
"t$	c #DE9520",
"u$	c #DD9420",
"v$	c #DF9621",
"w$	c #D69532",
"x$	c #91BA8F",
"y$	c #99AF73",
"z$	c #ECC621",
"A$	c #FDD225",
"B$	c #EDB226",
"C$	c #CB881D",
"D$	c #83976F",
"E$	c #68B492",
"F$	c #6AB794",
"G$	c #69B693",
"H$	c #6AB491",
"I$	c #86B087",
"J$	c #8BAB81",
"K$	c #9FA675",
"L$	c #A4A06B",
"M$	c #B39B5F",
"N$	c #C08B37",
"O$	c #D38E1F",
"P$	c #D28D1E",
"Q$	c #D38D1E",
"R$	c #A8A46E",
"S$	c #B0B167",
"T$	c #E2BD1D",
"U$	c #FFD623",
"V$	c #E6A329",
"W$	c #DC9420",
"X$	c #C59243",
"Y$	c #A4A06E",
"Z$	c #74B48F",
"`$	c #81B68F",
" %	c #D09131",
".%	c #C69D57",
"+%	c #78BD97",
"@%	c #A9A558",
"#%	c #CDAC19",
"$%	c #E2C848",
"%%	c #D0C663",
"&%	c #B9C375",
"*%	c #96B785",
"=%	c #64B491",
"-%	c #72BF9A",
";%	c #A5A16D",
">%	c #D6932C",
",%	c #EAAB22",
"'%	c #F8C924",
")%	c #EDC82F",
"!%	c #89BD8F",
"~%	c #65BE99",
"{%	c #71BF9B",
"]%	c #9BA879",
"^%	c #CAA147",
"/%	c #D0B22A",
"(%	c #81BD92",
"_%	c #6CC29C",
":%	c #73C7A3",
"<%	c #7AB991",
"[%	c #AFBC75",
"}%	c #D5C353",
"|%	c #CEAD22",
"1%	c #8BAD7B",
"2%	c #73C7A2",
"3%	c #81D0AE",
"4%	c #72C6A1",
"5%	c #76C9A3",
"  . + @ #       $ % & * = - ; > =             @ , @ '       , ) * ! , ~ ; - {             ] @ ! ^         * * @ ) / - ( _               ) * ",
"  @ : +           ! , .   <   {               , . [ ,         }   !   <   { | 1 2           !   +         # , !   3 4 {                 !   ",
"                                  [ & 5 [                               6 7 8 9 0 ] a                                     , ] ) a           ",
"                                  & @ * ,                             b c 9 9 9 d ! ]                                     . + e .           ",
"                                                                    f g 9 9 9 9 h                                                           ",
"                                                                  i j 9 k l m n o                                                           ",
"                                                                p q r s t u u v                                                             ",
"                                  4 w = 4                     x y z u u u u A B C D =                                     E { ~ =           ",
"                                  F E G 4                   H I u u u u u u J _ 4 K L                                     { { _ ;           ",
"                                  !                         M u u u u u u u N ]                                           5 :               ",
"=                               O & P :     =             Q R u u u u u u S T @ [ $     4 U                             & , @ )     U 4     ",
"_ V E                           ,   @     { _ 4 /         W u u u u u u X Y [ [ ] [   { Z E C                             : [ ]   E E w `   ",
"  {         4 E  ...                       .= {         +.@.u u u u u #.$.            L - %.&.        ..*.&...                    U C   {   ",
"            &.; = G                                     =.u u u u u -.;.>.                            ~ E / {                               ",
"  5 ,.'.a                                     ,.a ).,.!.~.u u u u {.].^.                    a /.a (.                                    a _.",
"  '.'.:.<.5                                   [.}.|.1.2.u u u u #.3.4.                    ,.5.6.7.7.                                    |.7.",
"    8.9.0.                                      8.,.8.a.u u u b.c.d.                        _.  8.                                      a e.",
"                                                      f.g.u h.i.j.j.k.l.m.n.                                                                ",
"                                                    o.p.q.u u u u u u u u h.r.s.6                                                           ",
"    , [             '       3                     t.u.u u u u u u u u u u u u u v.w.        [ )             ! 5     V                     x.",
"  # + @ #       y.+ & * = ; / > =             % , z.u u u u u u u u u u u u u u u A.B.    ] @ ' x.        * * @ ) ; *.E _               $ & ",
"  , [ ,           @ [ ]   ;   L     ,         [ C.D.u u u u u u u u u u u u u u u u E.F.    @   ,         ] [ @   ..= L     5 [         @   ",
"                                  # O ] +       G.u u u u u u u u u u u u u u u u u u @.H.                                ! + ' +           ",
"                                  e   e       I.J.u K.L.M.N.u u u u u u u u u u u u u u O.P.Q.                            5 , + :           ",
"                              R.S.T.          U.u u V.W.X.Y.u u u u u u u u u u u u u u u t Z.`.R.                                          ",
"                             +.+++@+#+$+    %+&+u u *+9 =+-+u u u u u u u u u u u u u u u ;+u u >+,+                                        ",
"                          '+)+u u u u !+~+  {+]+u u ^+9 9 /+u u u u u u u u u u u u u u u O.u u u (+_+                      &.4             ",
"                          :+u u u u u u <+[+}+|+1+;+u 2+3+u u u u u u u u u u u 4+5+u u u 6+7+u u u @.8+                  > 3 9+{           ",
"                          0+u u u u u u a+b+c+c+c+d+u u u u u u u e+O.u u u u f+g+h+i+u u j+k+u u u u t l+                &...{ E           ",
"                          m+u u u u u u u n+o+c+c+p+u u u q+u u u u u u u u u r+s+t+u+u u v+w+x+u u u u y+z+              5 ,               ",
"..                        A+u u u u u u u u B+c+c+C+u u u D+E+F+G+H+u u u u u I+9 9 J+u K+L+M+N+u u u u u q.O+          ) + @ P+    &.V     ",
"; _ E           4         Q+t u u u u u u u J.R+S+T+u u u U+V+W+X+Y+Z+`+J.u u  @.@+@K.u @@{ #@$@t u u u u u %@&@          a 5 [   %.; < G   ",
"  L         E ; _ ;       *@z u u u u u u u u =@-@u u u u ;@>@,@'@)@X+!@q+u u u u u u u ~@4   {@]@u u u u u u ^@                    V   L   ",
"              E   ~         /@u u u u u u u u z (@u u u u _@:@<@[@,@}@H+u u u |@1@2@3@`+4@      5@6@a+u u u u q.7@                          ",
"  ,.  8@5                   9@u u u u u u u u u 0@u u u u a@b@b@c@d@e@t u u n+f@c+c+c+g@h@  5 i@a j@k@l@m@n@o@p@q@                      5 r@",
"  s@t@8@u@,.                v@-.u u u u u u u u D+u u u u w@b@b@b@x@y@u u u z@c+c+c+c+A@B@D+D+D+D+D+0@l@9 9 9 9 9 C@                    D@7.",
"    (.  ,.                  E@F@u u u u u u u u h.G@u u u H@b@b@I@J@u u u u 2@c+c+c+c+K@u u u u u u u u L@M@9 9 9 N@                        ",
"                            O@P@x+u u u u u u u u z u u u A Q@R@S@u u u u u T@c+c+c+U@V@u u u u u u u u u u  @W@X@Y@                        ",
"                              Z@`@u u u u u u u u u u u u u u u u u u u u u  #.#+#@###$#u u u u u u u u u u u %#&#x                         ",
"  a : , [       *#5 * , U &./ =#-#{.u u u u u u u u u b.u u u u u u u u u u u e+D+;#i.>#,#x+u u u u u u u u u '#, = ; &.4               a )#",
"  ) @ y.]       + ' ) & &.!#..~#{#]#u u u u u u u u u ^#/#(#t u u u u _#:#j.<#_#u u u u [#}#|#u u u u u u u 1#2#+ ~ V ; V               & @ ",
"                                3#4#b.u u u u u u u u 5#6#4#7#8#9#0#u u u u u u u u u u u a#b#0#u u u u u u c#              [ ]             ",
"                                d#e#f#-.u u u u u u u u g#/#h#i#b.u u u u u u u u u u u u u y+j#k#l#u u u m#n#            ! + ! @           ",
"                                  o#p#q#u u u u u u u u u u u u u u u u u u u u u u u u u u u u r#s#{.u a+t#              5 u#+ ]           ",
"                                  v#w#x#l#u u u u u u u u u u u u u u u u u u u u u u u u u u u u y#6#b.z#                                  ",
"                                  A#B#C#u u u u u u u u u u u u u u u u u u u u u u u u u u u u u D#E#F#G#                                  ",
"                                  H#u u u u u u u u u u u u u u u u u u u u u u ]+u u u u u u u u u I#J#                    4 V             ",
"                                &.K#u u u u u u u u u u u u u u u u u u u u u u L##.u u u u u u u u y+M#      &.          N#V 9+*.          ",
"                                S.;#u u u u u u u u u u u u u u u u u u u u u u O#w+N+x+u u u u u u P#Q#                  &.E V (           ",
"                                R#u u u u u u u u u u u u u u u u u u u u u u u S#T#4#6#F@|#u u u R U#                  @ [ @ ,             ",
"; 4 =                           V#u u u u u u u u u u u u u u u u u u u u u u u W#X#Y#Z#`# $.$+$@$#$                    , + ] y.  = 4 G E   ",
"4 ~ 4         U V             R.$$u u u u u u u u u u u u u u u u u u u u u u u %$4#4#&$G ; ;           { U                       L G { 9+  ",
"            V > / >           *$u u u u u u u u u u u u u u u u u u u u u u u u =$4#4#-$              C / 4 _                               ",
"              ..  ;           ;$u u u u u u u u u u u u u u u u u u u u u u u u >$4#,$'$      ,.      { = { 4                               ",
"  )$e.6.8.,.                !$~$u u u u u u u u u u u u u u u u u u u u u u u u {$]$6       ^$<.e.r@                                    ^$/$",
"  ($).)$_$                  :$u u u u u u u u u u u u u u u u u u u u u u u u u <$          ^$e./.a                                     [$}$",
"                            |$u u u u u u u u u u u u u u u u u u u u u u u u u u 1$                                                        ",
"                          ~+_#u u u u u u u u u u u u u u u u u u u u u u u u u u 2$                                                        ",
"                    (.    3$D#u u u u u u u u u u u u u u u u u u u u u u u u u u 4$          (.            (.                            (.",
"  : + ] +       @ [ O . &.4 5$u u u u u u u u u u u u u u u u u u u u u u u u u u 6$      , , & .         . 7$, @ .._ 4 ;               , 8$",
"  @ ] P 5       [ ! ] )   < 9$`@-.u u u u u u u u u u u u u u u u u u u u u u u u 0$      5 ! 5 .         ) + ! [ ; L { =               ' [ ",
"                            a$b$4#c$h#h#h#h#d$f#w+6#e$h#h#f$g$h$`@i$j$t u u u k$l$m$                                        : .             ",
"                              n$o$4#4#4#4#4#4#4#4#4#4#4#4#4#4#4#4#4#4#4#4#6#4#4#p$q$]                                     y.+ ! @           ",
"                            r$s$t$T#4#4#u$v$4#4#4#4#4#4#4#4#4#4#4#4#4#4#4#4#4#w$x$,                                         5 [ 5           ",
"                          y$z$A$B$4#4#4#4#C$D$A+E$F$G$H$I$J$K$L$M$N$O$P$4#4#Q$R$                                                            ",
"                        S$T$ @u U$V$W$X$Y$Z$                      `$ %4#4#4#4#4#.%+%                                                        ",
"                        @%#%$%%%&%*%=%                              -%;%>%4#4#,%'%)%!%                                    U ..;             ",
"                                U w > ~%V                               {%]%^%t t D+/%(%                                  > _%> _           ",
"                                  :%  L                                       <%[%}%|%1%                                    2%= =           ",
"U                               } 3%, ,     4%                              ! # 5 +     &.                              ) 5%@ +       &.    "};
