/* XPM */
static char * pokeball_xpm[] = {
"70 70 364 2",
"  	c #73C7A1",
". 	c #7ACBA8",
"+ 	c #78CAA6",
"@ 	c #79CBA7",
"# 	c #7ACBA7",
"$ 	c #7BCCA8",
"% 	c #79CAA6",
"& 	c #7FCFAD",
"* 	c #7ECEAC",
"= 	c #71C6A0",
"- 	c #6AC19C",
"; 	c #6BC29C",
"> 	c #66BF99",
", 	c #76C9A4",
"' 	c #7DCDAB",
") 	c #7BCCA9",
"! 	c #7CCDAA",
"~ 	c #68C09A",
"{ 	c #6DC39D",
"] 	c #77CAA5",
"^ 	c #7ECEAB",
"/ 	c #6AC29C",
"( 	c #6DC39E",
"_ 	c #69C19B",
": 	c #77C9A5",
"< 	c #65BF99",
"[ 	c #75C8A3",
"} 	c #7DCDAA",
"| 	c #6CC29D",
"1 	c #70C59F",
"2 	c #74C8A2",
"3 	c #75C8A2",
"4 	c #7CCCA9",
"5 	c #61BC96",
"6 	c #6FC49E",
"7 	c #67C09A",
"8 	c #6DC49D",
"9 	c #6EC49E",
"0 	c #63BD97",
"a 	c #64BE98",
"b 	c #67BF99",
"c 	c #6FC59F",
"d 	c #81D0AF",
"e 	c #79CBA6",
"f 	c #80CFAE",
"g 	c #72C7A1",
"h 	c #6CC39D",
"i 	c #62BD97",
"j 	c #67BF9A",
"k 	c #68C09B",
"l 	c #6DC49E",
"m 	c #72C6A0",
"n 	c #6AC19B",
"o 	c #74C7A1",
"p 	c #83CEAB",
"q 	c #87D1AE",
"r 	c #86D0AD",
"s 	c #74C7A2",
"t 	c #7ACAA5",
"u 	c #88D1AE",
"v 	c #8FD4B3",
"w 	c #7BCAA6",
"x 	c #8BD2B0",
"y 	c #8DD3B2",
"z 	c #83CFAC",
"A 	c #82CEAB",
"B 	c #8ED4B3",
"C 	c #8AD2B0",
"D 	c #7ECCA8",
"E 	c #80CDA9",
"F 	c #77C9A3",
"G 	c #7DCBA7",
"H 	c #78C9A4",
"I 	c #6CC29C",
"J 	c #7DCEAB",
"K 	c #7ACCA8",
"L 	c #78CAA5",
"M 	c #71C49E",
"N 	c #68B693",
"O 	c #72AD8C",
"P 	c #7AA989",
"Q 	c #68B592",
"R 	c #71C39E",
"S 	c #73C6A0",
"T 	c #74B693",
"U 	c #8E8C71",
"V 	c #B8473B",
"W 	c #E44137",
"X 	c #EC4037",
"Y 	c #ED4037",
"Z 	c #E44237",
"` 	c #BA463A",
" .	c #8E896F",
"..	c #75B693",
"+.	c #73C29D",
"@.	c #8D8A76",
"#.	c #E26E68",
"$.	c #EE534D",
"%.	c #EF4036",
"&.	c #ED4036",
"*.	c #E1473B",
"=.	c #8D7962",
"-.	c #72C09C",
";.	c #6AB593",
">.	c #C9CBC7",
",.	c #FBF3F3",
"'.	c #FEF9F9",
").	c #FCECEC",
"!.	c #F16F6A",
"~.	c #ED3F36",
"{.	c #C15949",
"].	c #69B290",
"^.	c #5DBA94",
"/.	c #6BB694",
"(.	c #D3D5D2",
"_.	c #FFFFFF",
":.	c #F5A7A6",
"<.	c #EF3F35",
"[.	c #F04036",
"}.	c #CB5143",
"|.	c #6AB391",
"1.	c #65BE98",
"2.	c #72C39D",
"3.	c #BC8B83",
"4.	c #F3918F",
"5.	c #BD5B4B",
"6.	c #72C29D",
"7.	c #83896F",
"8.	c #F2ADAC",
"9.	c #FBDBDA",
"0.	c #EF3E34",
"a.	c #E93E34",
"b.	c #E73E34",
"c.	c #ED3F35",
"d.	c #EB3F35",
"e.	c #87836A",
"f.	c #6FC49F",
"g.	c #70BB97",
"h.	c #DC4A3D",
"i.	c #F05E59",
"j.	c #FDF2F2",
"k.	c #FFFCFC",
"l.	c #FEFAFA",
"m.	c #F9D1D0",
"n.	c #F0524C",
"o.	c #E83F36",
"p.	c #9E3E3B",
"q.	c #6D4F50",
"r.	c #6B5153",
"s.	c #7F4444",
"t.	c #DB3F37",
"u.	c #DD493D",
"v.	c #72BA96",
"w.	c #7CCCAA",
"x.	c #84997C",
"y.	c #EC4036",
"z.	c #F0625D",
"A.	c #F2817E",
"B.	c #F16D69",
"C.	c #E73F35",
"D.	c #7E4B4B",
"E.	c #595A5C",
"F.	c #B7B6B6",
"G.	c #D2D2D2",
"H.	c #8F8F8F",
"I.	c #605354",
"J.	c #D23F39",
"K.	c #EC3F36",
"L.	c #849376",
"M.	c #A15B4B",
"N.	c #EF4035",
"O.	c #D83A31",
"P.	c #C53A34",
"Q.	c #BA3E3A",
"R.	c #9E4442",
"S.	c #605F61",
"T.	c #D0D0D0",
"U.	c #EEEEEE",
"V.	c #F0F0F0",
"W.	c #E8E8E8",
"X.	c #A09FA0",
"Y.	c #6A4848",
"Z.	c #EB3E34",
"`.	c #A75546",
" +	c #6EBF9A",
".+	c #CB4137",
"++	c #EC3F35",
"@+	c #D33E37",
"#+	c #B74440",
"$+	c #8A4847",
"%+	c #4F4D4F",
"&+	c #525557",
"*+	c #56595B",
"=+	c #57585A",
"-+	c #747475",
";+	c #E0E0E0",
">+	c #F8F8F8",
",+	c #EAEAEA",
"'+	c #5C5B5C",
")+	c #924645",
"!+	c #BE423E",
"~+	c #DD3D34",
"{+	c #D14238",
"]+	c #6DBD99",
"^+	c #82CEAA",
"/+	c #69B794",
"(+	c #D04037",
"_+	c #B9413D",
":+	c #664B4C",
"<+	c #5A5759",
"[+	c #58585A",
"}+	c #575759",
"|+	c #737374",
"1+	c #E2E2E2",
"2+	c #5C5C5E",
"3+	c #5A5456",
"4+	c #964240",
"5+	c #CE423A",
"6+	c #78BC9C",
"7+	c #79CAA5",
"8+	c #7BCBA6",
"9+	c #89D2AF",
"0+	c #8CD3B1",
"a+	c #6CB693",
"b+	c #473C3C",
"c+	c #545456",
"d+	c #5E5E60",
"e+	c #686869",
"f+	c #79797A",
"g+	c #858585",
"h+	c #848484",
"i+	c #5F5F60",
"j+	c #DAD9D9",
"k+	c #DADADA",
"l+	c #969696",
"m+	c #5A5A5C",
"n+	c #59595B",
"o+	c #5B5758",
"p+	c #73B898",
"q+	c #87D0AE",
"r+	c #6AB895",
"s+	c #383B3B",
"t+	c #3E3E40",
"u+	c #535254",
"v+	c #636162",
"w+	c #CFCFCF",
"x+	c #F3F3F3",
"y+	c #F9F9F9",
"z+	c #FEFEFE",
"A+	c #F4F4F4",
"B+	c #6E6E6F",
"C+	c #666667",
"D+	c #999999",
"E+	c #A8A8A8",
"F+	c #8B8B8B",
"G+	c #5D5D5F",
"H+	c #CDCDCD",
"I+	c #D9D9D9",
"J+	c #9E9E9E",
"K+	c #5C5C5D",
"L+	c #57595A",
"M+	c #69B492",
"N+	c #70C29D",
"O+	c #575A57",
"P+	c #858383",
"Q+	c #999696",
"R+	c #A19E9E",
"S+	c #E5E4E4",
"T+	c #A2A2A2",
"U+	c #4F4F51",
"V+	c #48484A",
"W+	c #7B7B7B",
"X+	c #D4D4D4",
"Y+	c #F5F5F5",
"Z+	c #D7D7D7",
"`+	c #8C8E8D",
" @	c #6F897B",
".@	c #C3C1C1",
"+@	c #FAFAFA",
"@@	c #A0AFA8",
"#@	c #75C9A3",
"$@	c #70B092",
"%@	c #9E9B9B",
"&@	c #ECECEC",
"*@	c #85BAA1",
"=@	c #7FCFAC",
"-@	c #63BD98",
";@	c #79CAA7",
">@	c #75C3A1",
",@	c #8A8F8B",
"'@	c #B0AEAE",
")@	c #D6D9D7",
"!@	c #78C4A4",
"~@	c #69A88B",
"{@	c #9A9797",
"]@	c #B7B4B4",
"^@	c #74AC91",
"/@	c #72C59F",
"(@	c #6F8C7D",
"_@	c #9F9C9C",
":@	c #B2AFAF",
"<@	c #FEFFFF",
"[@	c #D8D7D7",
"}@	c #779082",
"|@	c #768B7F",
"1@	c #A09D9D",
"2@	c #C4C2C2",
"3@	c #E6E6E6",
"4@	c #F7F7F7",
"5@	c #F4F3F3",
"6@	c #E0DFDF",
"7@	c #B4B2B2",
"8@	c #75897E",
"9@	c #70C39D",
"0@	c #77C9A4",
"a@	c #6D8C7C",
"b@	c #989595",
"c@	c #A29F9F",
"d@	c #A4A1A1",
"e@	c #ABA8A8",
"f@	c #B8B6B6",
"g@	c #B6B3B3",
"h@	c #A7A4A4",
"i@	c #A3A0A0",
"j@	c #6C8A7B",
"k@	c #72C5A0",
"l@	c #69AB8C",
"m@	c #7D857F",
"n@	c #9C9A99",
"o@	c #9C9B9A",
"p@	c #7E8681",
"q@	c #68A98B",
"r@	c #6FC19C",
"s@	c #6DB292",
"t@	c #6B917E",
"u@	c #6F7470",
"v@	c #838281",
"w@	c #898887",
"x@	c #6B907D",
"y@	c #6DB192",
"z@	c #68BD98",
"A@	c #65BE99",
"B@	c #6CBB97",
"C@	c #6EBE9A",
"D@	c #5FBB95",
"E@	c #71C59F",
"F@	c #5EBB95",
"G@	c #7CCBA6",
"H@	c #7DCCA8",
"I@	c #91D6B5",
"J@	c #81CDAA",
"K@	c #7DCCA7",
"L@	c #76C8A3",
"M@	c #85D0AD",
"N@	c #7ACAA6",
"O@	c #7CCBA7",
"P@	c #82D0AF",
"Q@	c #82D1AF",
"R@	c #6FC59E",
"S@	c #73C7A3",
"T@	c #73C7A2",
"U@	c #81D0AE",
"V@	c #72C6A1",
"W@	c #76C9A3",
"  . + @ #       $ % & * = - ; > =             @ , @ '       , ) * ! , ~ ; - {             ] @ ! ^         * * @ ) / - ( _               ) * ",
"  @ : +           ! , .   <   {               , . [ ,         }   !   <   {                 !   +         # , !   | 1 {                 !   ",
"                                  [ & 2 [                                     , ) ] 3                                     , ] ) 3           ",
"                                  & @ * ,                                     ' ] ! ]                                     . + 4 .           ",
"                                                                                                                                            ",
"                                                                                                                                            ",
"                                                                                                                                            ",
"                                  1 5 = 1                                     6 7 8 =                                     9 { ~ =           ",
"                                  0 9 a 1                                     _ 1 b c                                     { { _ ;           ",
"                                  !                                           ]                                           2 :               ",
"=                               d & e :     =                               f @ [ $     1 g                             & , @ )     g 1     ",
"_ h 9                           ,   @     { _ 1 /                           [ [ ] [   { i 9 7                             : [ ]   9 9 5 j   ",
"  {         1 9 k 6                       k = {           / _ = =                     c - l m         6 n m 6                     g 7   {   ",
"            m ; = a                                       ~ m < m                                     ~ 9 / {                               ",
"  2 o p 3                                     o 3 q o 2                                     3 r 3 s                                     3 t ",
"  p p u v 2                                   w x y z A                                   o B C D D                                     y D ",
"    E F G                                       E o E                                       t   E                                       3 H ",
"                                                                                                                                            ",
"                                                                                                                                            ",
"    , [             '       |                     +             '       I                   [ )             ! 2     h                     J ",
"  # + @ #       K + & * = ; / > =             % , @ '       , K & ! , k / / {             ] @ ' J         * * @ ) ; n 9 _               $ & ",
"  , [ ,           @ [ ]   ;   c     ,         [ ] 2 [         @   @   ;   c     [ 2         @   ,         ] [ @   6 = c     2 [         @   ",
"                                  # d ] +                                     ! ' + L                                     ! + ' +           ",
"                                  4   4                         M N O P O Q R :   K 2                                     2 , + :           ",
"                                                          S T U V W X Y X Z `  ...m                                                         ",
"                                                        +.@.#.$.%.%.%.%.%.%.%.&.*.=.-.                                                      ",
"                                    6                 ;.>.,.'.).!.%.%.%.%.%.%.%.%.~.{.].                                    m 1             ",
"                                g _ ^.{ h           /.(._._._._.:.<.%.%.%.%.%.%.%.%.[.}.|.                                > | 1.{           ",
"                                  7   7           2.3._._._._._.4.%.%.%.%.%.%.%.%.%.%.[.5.6.                              m 6 { 9           ",
"                                  !               7.8._._._._.9.0.%.%.%.[.a.b.c.%.%.%.%.d.e.                              2 ,               ",
"6                               & ! ) ,     f.  g.h.i.j.k.l.m.n.%.%.%.o.p.q.r.s.t.%.%.%.%.u.v.                          ) + @ w.    m h     ",
"; _ 9           1               2   ,     ~ / { x.y.%.z.A.B.%.%.%.%.C.D.E.F.G.H.I.J.%.%.%.K.L.          =                 3 2 [   l ; < a   ",
"  c         9 ; _ ;                       { m c M.%.%.%.N.[.c.O.P.Q.R.S.T.U.V.W.X.Y.Z.%.%.%.`.        I n = h                       h   c   ",
"              9   ~                            +.+[.++@+#+$+%+&+*+=+=+-+;+_._.>+,+'+)+!+~+[.{+]+      ; 1 ; 1                               ",
"  o   ^+2                                     /+(+_+:+<+[+[+[+[+[+[+}+|+1+_._.>+W.2+[+[+3+4+5+6+3 o                                     2 7+",
"  8+9+^+0+o                                   a+b+c+[+[+[+d+e+|+f+g+h+i+j+W.>+k+l+m+n+[+[+[+o+p+q+H                                     A D ",
"    s   o                                     r+s+t+u+v+w+W.x+y+z+_.A+B+C+D+E+F+G+H+I+J+K+n+L+M+s                                           ",
"                                              N+O+P+Q+R+S+_._._._._._.U.T+U+V+W+X+z+_._.Y+Z+`+ +                                            ",
"                                                 @R+R+R+.@_._._._._._._._.+@Y+_._._._._._.z+@@                                              ",
"  3 : , [       #@2 * , g m / 1 g             3 $@%@R+R+R+&@_._._._._._._._._._._._._._._.+@*@} ,         , J [ , = ; m 1               3 =@",
"  ) @ K ]       + ' ) & m -@6 < m             ;@>@,@R+R+R+'@>+_._._._._._._._._._._._._._.)@!@+ ^         & ) J + ~ h ; h               & @ ",
"                                    .             ~@{@R+R+R+]@>+_._._._._._._._._._._._.,+^@                                [ ]             ",
"                                  ' * ) +         /@(@_@R+R+R+:@W._._._._._._._._._.<@[@}@/@                              ! + ! @           ",
"                                  !   !             M |@_@R+R+R+1@2@3@4@_._._._.5@6@7@8@9@                                2 0@+ ]           ",
"                                                      M a@b@R+R+R+R+c@d@e@f@g@h@i@Q+j@R                                                     ",
"                                                        k@l@m@n@1@R+R+R+R+R+1@o@p@q@/@                                                      ",
"                                    _                       r@s@t@u@v@w@v@u@x@y@z@1                                         1 h             ",
"                                m A@^.; ~                         m  +B@C@S   D@A@I n                         m           D@h 1.n           ",
"                                  j g 7                                       l g _ =                                     m 9 h (           ",
"                                @ d 2 [                                     @ .   ,                                     @ [ @ ,             ",
"; 1 =                           $ , } 2   E@; m 1                           + ] @ +   = < c 6                           , + ] K   = 1 a 9   ",
"1 ~ 1         g h                         a ( / 9         m {                         I a ; ;           { g                       c a { 1.  ",
"            h > / >                                       F@; ; 6                                     7 / 1 _                               ",
"              6   ;                               o       6   ;                               o       { = { 1                               ",
"  G@H C E o                                   0@H@I@7+8+                                    J@v H 7+                                    J@K@",
"  L@q G@M@                                    2 u 7+q L@                                    J@H r 3                                     N@O@",
"                                                                                                                                            ",
"                                                                                                                                            ",
"                    s       g                                   s       g                     s             s                             s ",
"  : + ] +       @ [ d . m 1 ~ ; m             : s . .       [ , P@+ #@9 ~ 9 9             , , & .         . f , @ 6 _ 1 ;               , Q@",
"  @ ] e 2       [ ! ] )   < m ;               0@# , +       s ' [ ' s A@m I m             2 ! 2 .         ) + ! [ ; c { =               ' [ ",
"                                    ^                                           . :                                         : .             ",
"                                  J ! 4 :                                     ! @ ) ]                                     K + ! @           ",
"                                  ,   ,                                       2   ,                                         2 [ 2           ",
"                                                                                                                                            ",
"                                                                                                                                            ",
"                                    >                                           ; R@                                      g 6 ;             ",
"                                g 5 > A@h                                     i ; 7 h                                     > I > _           ",
"                                  S@  c                                       T@  1                                         T@= =           ",
"g                               } U@, ,     V@                              ! # 2 +     m                               ) W@@ +       m     "};
